<svg version="1.1" xmlns="http://www.w3.org/2000/svg" xmlns:xlink="http://www.w3.org/1999/xlink" xml:space="preserve">

<symbol id="attack-pattern" viewBox="0 0 30.2 62">
    <path d="M30.1,10.7c0.4-3-1.3-8.1-5.5-7.9c-2.8,0.1-4,1.1-5-0.1c-1.2-1.5-2.8-2.9-3.4-2.6
        c-0.6,0.3-0.8,4.7-0.8,4.7s-6.7,2.1-7.4,5.8C7.6,12.5,0,15,0,15s0.6,5.9,1.4,6.1c0.8,0.2,1.8,0.1,1.8,0.1l-0.7,1.4L5,22.7
        c0,0,1.7-3.1,3-2.8c2.6,0.6,5.4-0.7,5.4-0.7S-6.1,33.2,7.1,46.3c0.4,2.7,0.6,4,0.6,4s-4.2,1.8-4.6,3.8c-0.4,2,1.1,4.1,1.1,4.1H1.5
        V62h28.3v-3.8h-3.1c0,0,1.6-2.1,1-4.1c-0.7-2.3-4.4-3.7-4.4-3.7l0.1-4.6c0,0,3.1-0.6,4.3-1.6c-2.3-0.6-2.9-10.9-2.6-14.9
        C25.3,24.9,29.6,14.2,30.1,10.7z"/>
</symbol>

<symbol id="identity" viewBox="0 0 68.3 61.9">
    <path id="icon" d="M68.1,57.6c-0.9-1.1-1-4-1-4l-0.5-3.3c-0.2-2-1.6-3.2-1.6-3.2l-5-2.3L49.6,40
        c-2.6-1-4.7-4.7-4.7-4.7h-0.6l0.4-3.6c1.1-1,1.3-3.2,1.3-3.2l0.4-3.4c1.3,0.8,1.9-0.4,1.9-0.4c1.4-1.1,1.2-5.6,1.2-5.6
        c-0.1-3.4-0.8-3-1.2-2.5c0.2-0.3,0.3-0.5,0.3-0.5C49.3,8,47.5,5.6,47.5,5.6c-2-2.8-4-3.1-4-3.1c-2.4-2.8-9.8-2.8-10.7-2.3
        c0.3-0.4-2.9,0.9-2.9,0.9C26.8,2.5,27.1,4,27.1,4c-5,2.2-2.6,12.7-2.6,12.7c-1.1-0.4-1.1,1.4-1.1,1.4c-0.4,3.7,0.9,6.5,0.9,6.5
        c0.6,1.4,2.3,1,2.3,1c0.2,5.2,1.6,5.1,1.6,5.1L28,34.4l-0.5-0.2c-0.5,1.2-5,4.7-5,4.7c-3.9,0.5-12.1,5-12.1,5
        c-6.7,0.1-6.9,3.9-6.9,3.9c-0.6,1.4-0.4,4.4-0.4,4.4c-2.1,3.6-2,4.3-2,4.3c0,2.7-1.1,5-1.1,5h67.8l0.2-0.3
        C68.6,60.4,68.1,57.6,68.1,57.6z"/>
</symbol>

<symbol id="indicator" viewBox="0 0 61.4 63.1">
    <path d="M40.7,11c0.8,2,1.3,5.4,1.3,7.8c0,6.5-1.8,12-8.8,15.9V63h12V11H40.7z M61.4,63h-12V27.5h12V63z
        M28.6,63.1h-12V42.6h12V63.1z M0.5,36.6c-0.7,0.6-0.7,1.7,0,2.3c0.6,0.6,1.7,0.6,2.3,0l7.1-7.1c1.4,1.2,2.9,2.1,4.6,2.8
        c2.1,0.9,4.5,1.4,6.9,1.4c2.4,0,4.8-0.5,6.9-1.4c2.2-0.9,4.2-2.3,5.8-3.9h0c1.6-1.7,3-3.7,3.9-5.8l0-0.1c0.8-2.1,1.3-4.4,1.3-6.8
        c0-2.4-0.5-4.8-1.4-6.9c-0.9-2.2-2.3-4.2-3.9-5.9C31,2,26.5,0,21.5,0c-2.4,0-4.8,0.4-6.9,1.3h0c-2.2,0.9-4.2,2.3-5.8,3.9L8.7,5.4
        C7.1,7,5.7,8.9,4.8,11.1l0,0.1c-0.9,2.1-1.3,4.4-1.3,6.8c0,2.4,0.5,4.8,1.4,6.9c0.7,1.7,1.7,3.2,2.8,4.6L0.5,36.6L0.5,36.6z
        M11.1,28.4c-1.4-1.4-2.5-3-3.2-4.8C7.2,21.9,6.8,20,6.8,18c0-2,0.4-3.8,1.1-5.6l0-0.1C8.6,10.6,9.7,9,11,7.7l0.1-0.1
        c1.4-1.3,3-2.5,4.8-3.2l0,0c1.7-0.7,3.7-1.1,5.6-1.1c4.1,0,7.7,1.6,10.4,4.3c1.4,1.4,2.5,3,3.2,4.8c0.7,1.7,1.1,3.6,1.1,5.6
        c0,2-0.4,3.8-1.1,5.5l0,0.1c-0.7,1.8-1.8,3.4-3.2,4.8l0,0c-1.4,1.3-3,2.4-4.8,3.2c-1.7,0.7-3.6,1.1-5.6,1.1c-2,0-3.9-0.4-5.6-1.1
        C14.1,30.8,12.5,29.7,11.1,28.4L11.1,28.4L11.1,28.4L11.1,28.4L11.1,28.4z M10.8,17c-0.6,0-1,0.4-1,1c0,1.5,0.3,3,0.9,4.4l0,0.1
        c0.6,1.3,1.4,2.6,2.5,3.7c1.1,1.1,2.4,2,3.8,2.5c1.4,0.6,3,0.9,4.5,0.9c0.6,0,1-0.4,1-1c0-0.5-0.4-1-1-1c-1.3,0-2.5-0.2-3.7-0.7
        c-1.1-0.5-2.2-1.2-3.1-2.1c-0.9-0.9-1.6-2-2.1-3.1l0,0c-0.5-1.2-0.7-2.4-0.7-3.7C11.8,17.4,11.4,17,10.8,17L10.8,17L10.8,17z"/>
</symbol>

<symbol id="threat-actor" viewBox="0 0 54.9 62.8">
    <path d="M4.8,14.2c0-0.5,10.3-1.6,10.3-1.6s6.3-12.1,8.8-12.6c1.8-0.4,3.5,1.1,4,1c0.8-0.1,2.4-1.7,4-0.6
	c1.6,1.1,6.7,12.3,6.7,12.3s10.6,0.8,10.3,1.4S32.4,24.6,27.4,25S4.8,14.7,4.8,14.2z M46.7,40.2c-2-1.4-6.7-2.3-6.7-2.3l8.4-6.8
	L40,22.8l-0.1,0.2C39.3,30,36.5,42,27.2,42c-9.6,0-11.8-12.1-12.8-19.2v0L6.3,31l8.5,6.9c0,0-4.6,1-6.7,2.3C5.3,42.2,0,53,0,56.5
	c0,1.8,2,6.2,6.8,6.3c0.8,0,40.7,0,41.5,0c4.8-0.1,6.5-4.5,6.5-6.4C54.9,52.9,49.6,42.2,46.7,40.2z"/>
</symbol>

<symbol id="course-of-action" viewBox="0 0 59.8 55.3">
    <path d="M52,8.5H40.7v-2c0-1.8-0.7-3.4-1.9-4.6C37.5,0.7,35.9,0,34.1,0h-8.4c-1.8,0-3.5,0.7-4.6,1.9
        c-1.2,1.2-1.9,2.8-1.9,4.6v2H7.8C3.5,8.5,0,12.1,0,16.4v31.2c0,4.3,3.5,7.8,7.8,7.8H52c4.3,0,7.8-3.5,7.8-7.8V16.4
        C59.8,12.1,56.3,8.5,52,8.5z M23.7,6.8c0-0.8,0.3-1.6,0.9-2.1v0c0.5-0.5,1.3-0.9,2.1-0.9h6.6c0.8,0,1.5,0.3,2.1,0.8
        c0.5,0.5,0.9,1.3,0.9,2.1v1.6H23.7V6.8z M44.2,36c0,0.8-0.6,1.4-1.4,1.4h-7.4v7.4c0,0.8-0.6,1.4-1.4,1.4h-8.2
        c-0.8,0-1.4-0.6-1.4-1.4v-7.4H17c-0.8,0-1.4-0.6-1.4-1.4v-8.3c0-0.7,0.6-1.4,1.4-1.4h7.4V19c0-0.8,0.6-1.4,1.4-1.4H34
        c0.8,0,1.4,0.6,1.4,1.4v7.4h7.4c0.7,0,1.4,0.6,1.4,1.4V36z"/>
</symbol>

<symbol id="malware" viewBox="0 0 54.3 60">
    <path id="icon" d="M49.8,47.2c-1.4-1.4-3-2.5-4.8-3.2l-0.1,0c-1-0.4-2.1-0.7-3.2-0.9v-4.9h11.2
        c0.8,0,1.4-0.6,1.4-1.4c0-0.8-0.6-1.4-1.4-1.4H41.7V32c1.1-0.1,2.3-0.5,3.3-0.9c1.8-0.7,3.4-1.8,4.7-3.1l0.1-0.1
        c1.3-1.3,2.5-3,3.2-4.8c0.7-1.8,1.1-3.7,1.1-5.7c0-0.8-0.6-1.4-1.4-1.4c-0.8,0-1.4,0.6-1.4,1.4c0,1.6-0.3,3.2-0.9,4.6
        c-0.6,1.4-1.5,2.8-2.6,3.9l-0.1,0c-1.1,1.1-2.4,1.9-3.8,2.5c-0.8,0.3-1.6,0.6-2.5,0.7c-0.2-0.8-0.6-1.5-1-2.1c0.8-1,1.2-2.3,1.2-3.6
        v-4.3c0-3.3-1.1-6.4-3.1-8.9l8-8c0.5-0.5,0.5-1.4,0-2c-0.6-0.6-1.5-0.6-2,0l-7.9,7.9c-2.5-2.2-5.9-3.6-9.5-3.6c-3.7,0-7,1.3-9.5,3.6
        L9.7,0.4c-0.5-0.6-1.4-0.6-2,0c-0.5,0.5-0.5,1.4,0,2l8,8c-1.9,2.4-3.1,5.6-3.1,8.9v4.3c0,1.4,0.5,2.6,1.3,3.6
        c-0.5,0.6-0.8,1.3-1,2.1c-0.9-0.1-1.8-0.4-2.6-0.8c-1.4-0.6-2.7-1.4-3.8-2.5l-0.1,0c-1.1-1.1-2-2.5-2.6-3.9c-0.6-1.4-0.9-3-0.9-4.6
        c0-0.8-0.6-1.4-1.4-1.4C0.6,16,0,16.6,0,17.4c0,2,0.4,3.9,1.1,5.7c0.7,1.8,1.8,3.4,3.2,4.8l0.1,0.1c1.3,1.3,2.9,2.4,4.8,3.1
        c1.1,0.4,2.3,0.8,3.5,0.9v3.3H1.4c-0.7,0-1.4,0.6-1.4,1.4c0,0.8,0.6,1.4,1.4,1.4h11.3V43c-1.2,0.2-2.3,0.5-3.4,0.9l-0.1,0
        c-1.8,0.7-3.4,1.8-4.8,3.2c-1.4,1.3-2.5,3-3.2,4.8C0.4,53.8,0,55.7,0,57.6C0,58.4,0.6,59,1.4,59c0.8,0,1.4-0.6,1.4-1.4
        c0-1.6,0.3-3.2,0.9-4.6c0.6-1.5,1.5-2.8,2.6-3.9c1.1-1.1,2.4-2,3.9-2.6l0-0.1c0.8-0.3,1.6-0.5,2.4-0.7c0.1,3.8,1.7,7.3,4.2,9.9
        c2.6,2.6,6.3,4.2,10.3,4.2c4,0,7.6-1.6,10.2-4.2v0c2.6-2.5,4.2-6.1,4.3-9.8c0.7,0.1,1.5,0.4,2.2,0.6l0.1,0.1
        c1.5,0.6,2.8,1.5,3.9,2.6c1.1,1.1,2,2.4,2.6,3.9c0.6,1.4,0.9,2.9,0.9,4.6c0,0.8,0.6,1.4,1.4,1.4c0.8,0,1.4-0.6,1.4-1.4
        c0-2-0.4-3.9-1.1-5.7C52.3,50.2,51.2,48.5,49.8,47.2z M38,26.8c-0.1,0.5-0.6,0.8-1,0.8c-0.1,0-0.2,0-0.3,0c0,0-3.2-0.9-9.5-0.9
        c-6.3,0-9.5,0.9-9.5,0.9c-0.6,0.2-1.2-0.2-1.3-0.7c-0.2-0.6,0.2-1.2,0.7-1.3c0.1,0,3.5-1,10.1-1c6.6,0,10,1,10.1,1
        C37.8,25.6,38.2,26.2,38,26.8z"/>
</symbol>

<symbol id="campaign" viewBox="22 6 100 100">
    <path d="M56.007,35.463c-5.825,0-10.545,4.728-10.545,10.55s4.72,10.548,10.545,10.548s10.55-4.726,10.55-10.548
        S61.833,35.463,56.007,35.463z M61.41,40.403c-0.714-0.782-0.927-1.75-0.468-2.169c0.457-0.421,1.402-0.121,2.116,0.661
        c0.716,0.781,0.922,1.756,0.472,2.173C63.071,41.479,62.125,41.183,61.41,40.403z M44.64,54.583
        c-5.809,0-10.535,4.724-10.535,10.548c0,5.822,4.727,10.548,10.535,10.548c5.815,0,10.543-4.726,10.543-10.548
        C55.183,59.307,50.456,54.583,44.64,54.583z M50.038,59.52c-0.719-0.779-0.931-1.753-0.472-2.167
        c0.456-0.42,1.404-0.123,2.118,0.658c0.714,0.784,0.922,1.759,0.469,2.173C51.697,60.601,50.749,60.301,50.038,59.52z
            M66.663,54.583c-5.822,0-10.55,4.724-10.55,10.548c0,5.822,4.728,10.548,10.55,10.548c5.825,0,10.552-4.726,10.552-10.548
        C77.215,59.307,72.488,54.583,66.663,54.583z M72.065,59.52c-0.711-0.779-0.926-1.753-0.467-2.167
        c0.457-0.42,1.404-0.123,2.119,0.658c0.713,0.784,0.922,1.759,0.471,2.173C73.727,60.601,72.784,60.301,72.065,59.52z
            M99.522,73.812c-5.824,0-10.549,4.724-10.549,10.55c0,5.822,4.725,10.546,10.549,10.546c5.822,0,10.549-4.724,10.549-10.546
        C110.071,78.535,105.345,73.812,99.522,73.812z M104.925,78.75c-0.715-0.781-0.928-1.754-0.469-2.169
        c0.457-0.42,1.402-0.121,2.119,0.661c0.713,0.781,0.924,1.757,0.469,2.175C106.587,79.829,105.638,79.529,104.925,78.75z
            M88.757,54.583c-5.822,0-10.55,4.726-10.55,10.55s4.728,10.548,10.55,10.548c5.828,0,10.551-4.724,10.551-10.548
        S94.585,54.583,88.757,54.583z M94.161,59.523c-0.713-0.779-0.93-1.754-0.467-2.169c0.455-0.42,1.402-0.121,2.113,0.661
        c0.717,0.779,0.924,1.759,0.473,2.171C95.821,60.604,94.876,60.303,94.161,59.523z M78.066,35.467
        c-5.825,0-10.551,4.726-10.551,10.548c0,5.826,4.727,10.55,10.551,10.55c5.823,0,10.548-4.724,10.548-10.55
        C88.614,40.192,83.89,35.467,78.066,35.467z M83.468,40.405c-0.715-0.779-0.928-1.752-0.469-2.167
        c0.457-0.42,1.404-0.121,2.117,0.659c0.715,0.781,0.922,1.759,0.471,2.177C85.128,41.486,84.183,41.187,83.468,40.405z
            M77.393,73.812c-5.825,0-10.551,4.724-10.551,10.55c0,5.822,4.727,10.546,10.551,10.546c5.823,0,10.548-4.724,10.548-10.546
        C87.94,78.535,83.216,73.812,77.393,73.812z M82.796,78.75c-0.714-0.781-0.929-1.754-0.469-2.169
        c0.455-0.42,1.4-0.121,2.117,0.661c0.717,0.781,0.922,1.757,0.469,2.175C84.456,79.829,83.509,79.529,82.796,78.75z
            M55.325,73.812c-5.825,0-10.542,4.724-10.542,10.55c0,5.822,4.717,10.546,10.542,10.546s10.55-4.724,10.55-10.546
        C65.875,78.535,61.15,73.812,55.325,73.812z M60.727,78.75c-0.714-0.781-0.928-1.754-0.469-2.169
        c0.458-0.42,1.403-0.121,2.12,0.661c0.714,0.781,0.922,1.757,0.469,2.175C62.388,79.829,61.441,79.529,60.727,78.75z
            M33.281,73.812c-5.825,0-10.55,4.724-10.55,10.55c0,5.822,4.725,10.546,10.55,10.546c5.824,0,10.539-4.724,10.539-10.546
        C43.82,78.535,39.105,73.812,33.281,73.812z M38.683,78.75c-0.714-0.781-0.926-1.754-0.47-2.169
        c0.459-0.42,1.403-0.121,2.119,0.661c0.714,0.781,0.922,1.757,0.47,2.175C40.344,79.829,39.396,79.529,38.683,78.75z
            M67.336,16.363c-5.825,0-10.55,4.727-10.55,10.548c0,5.826,4.725,10.548,10.55,10.548c5.826,0,10.548-4.722,10.548-10.548
        C77.885,21.09,73.162,16.363,67.336,16.363z M72.741,21.302c-0.714-0.779-0.931-1.755-0.472-2.166
        c0.457-0.419,1.405-0.121,2.118,0.658c0.715,0.781,0.922,1.759,0.473,2.173C74.4,22.383,73.455,22.083,72.741,21.302z
            M103.802,69.641c-3.594,0-6.764,1.848-8.605,4.643c1.621-1.066,3.563-1.692,5.652-1.692c5.688,0,10.299,4.611,10.299,10.297
        c0,2.092-0.623,4.031-1.689,5.654c2.793-1.842,4.641-5.013,4.641-8.604C114.099,74.254,109.485,69.641,103.802,69.641z
            M111.142,75.111c-0.445,0.404-1.367,0.11-2.064-0.651c-0.699-0.761-0.91-1.708-0.459-2.116
        c0.445-0.409,1.367-0.118,2.066,0.646C111.382,73.75,111.583,74.704,111.142,75.111z M107.583,65.594
        c-3.51,0-6.607,1.802-8.406,4.53c1.586-1.04,3.484-1.652,5.523-1.652c5.555,0,10.059,4.503,10.059,10.058
        c0,2.043-0.609,3.94-1.65,5.522c2.729-1.797,4.531-4.894,4.531-8.405C117.64,70.099,113.136,65.594,107.583,65.594z
            M114.753,70.936c-0.434,0.394-1.338,0.11-2.021-0.635c-0.676-0.748-0.881-1.672-0.445-2.066
        c0.436-0.401,1.336-0.117,2.021,0.629C114.987,69.606,115.187,70.539,114.753,70.936z M93.036,50.715
        c-3.596,0-6.764,1.851-8.605,4.644c1.621-1.066,3.564-1.688,5.656-1.688c5.686,0,10.297,4.609,10.297,10.295
        c0,2.088-0.625,4.031-1.691,5.652c2.797-1.842,4.643-5.011,4.643-8.604C103.335,55.328,98.722,50.715,93.036,50.715z
            M100.378,56.188c-0.447,0.401-1.371,0.113-2.066-0.649c-0.697-0.763-0.906-1.712-0.457-2.118
        c0.445-0.409,1.369-0.116,2.064,0.646C100.616,54.829,100.819,55.783,100.378,56.188z M82.345,31.602
        c-3.595,0-6.765,1.848-8.604,4.641c1.619-1.066,3.563-1.69,5.654-1.69c5.685,0,10.3,4.608,10.3,10.295
        c0,2.09-0.627,4.033-1.695,5.654c2.795-1.84,4.641-5.011,4.641-8.604C92.64,36.215,88.028,31.602,82.345,31.602z M89.685,37.07
        c-0.445,0.406-1.367,0.112-2.064-0.649c-0.699-0.763-0.906-1.71-0.459-2.113c0.447-0.412,1.369-0.121,2.064,0.641
        C89.923,35.713,90.128,36.665,89.685,37.07z M96.819,46.911c-3.51,0-6.607,1.806-8.404,4.532c1.584-1.04,3.48-1.65,5.521-1.65
        c5.553,0,10.061,4.503,10.061,10.056c0,2.043-0.611,3.939-1.654,5.522c2.73-1.797,4.535-4.896,4.535-8.402
        C106.878,51.416,102.372,46.911,96.819,46.911z M103.991,52.255c-0.438,0.396-1.338,0.11-2.021-0.635
        c-0.682-0.746-0.885-1.67-0.445-2.064c0.436-0.401,1.338-0.117,2.016,0.629C104.222,50.928,104.421,51.86,103.991,52.255z
            M111.452,61.53c-3.428,0-6.447,1.764-8.205,4.427c1.547-1.016,3.398-1.614,5.395-1.614c5.42,0,9.814,4.399,9.814,9.817
        c0,1.996-0.596,3.847-1.613,5.391c2.668-1.754,4.428-4.774,4.428-8.203C121.271,65.93,116.874,61.53,111.452,61.53z
            M118.452,66.747c-0.426,0.385-1.305,0.108-1.973-0.618c-0.664-0.729-0.861-1.631-0.438-2.018
        c0.428-0.393,1.309-0.114,1.973,0.611C118.681,65.449,118.872,66.36,118.452,66.747z"/>
</symbol>

<symbol id="circle" viewBox="0 0 32 32">
    <circle cx="32" cy="32" r="32"/>
</symbol>

</svg>