<?xml version="1.0" encoding="utf-8"?>
<!-- Generator: Adobe Illustrator 20.1.0, SVG Export Plug-In . SVG Version: 6.00 Build 0)  -->
<svg version="1.1" id="attackpatternb" xmlns="http://www.w3.org/2000/svg" xmlns:xlink="http://www.w3.org/1999/xlink" x="0px"
	 y="0px" width="30.2px" height="62px" viewBox="0 0 30.2 62" enable-background="new 0 0 30.2 62" xml:space="preserve">
<path id="icon" fill="#249FDD" d="M30.1,10.7c0.4-3-1.3-8.1-5.5-7.9c-2.8,0.1-4,1.1-5-0.1c-1.2-1.5-2.8-2.9-3.4-2.6
	c-0.6,0.3-0.8,4.7-0.8,4.7s-6.7,2.1-7.4,5.8C7.6,12.5,0,15,0,15s0.6,5.9,1.4,6.1c0.8,0.2,1.8,0.1,1.8,0.1l-0.7,1.4L5,22.7
	c0,0,1.7-3.1,3-2.8c2.6,0.6,5.4-0.7,5.4-0.7S-6.1,33.2,7.1,46.3c0.4,2.7,0.6,4,0.6,4s-4.2,1.8-4.6,3.8c-0.4,2,1.1,4.1,1.1,4.1H1.5
	V62h28.3v-3.8h-3.1c0,0,1.6-2.1,1-4.1c-0.7-2.3-4.4-3.7-4.4-3.7l0.1-4.6c0,0,3.1-0.6,4.3-1.6c-2.3-0.6-2.9-10.9-2.6-14.9
	C25.3,24.9,29.6,14.2,30.1,10.7z"/>
</svg>
