<?xml version="1.0" encoding="utf-8"?>
<!-- Generator: Adobe Illustrator 20.1.0, SVG Export Plug-In . SVG Version: 6.00 Build 0)  -->
<svg version="1.1" id="attackpattern" xmlns="http://www.w3.org/2000/svg" xmlns:xlink="http://www.w3.org/1999/xlink" x="0px"
	 y="0px" width="100px" height="100px" viewBox="0 0 100 100" enable-background="new 0 0 100 100" xml:space="preserve">
<path id="base" fill="#249FDD" d="M88,100H12c-6.6,0-12-5.4-12-12V12C0,5.4,5.4,0,12,0h76c6.6,0,12,5.4,12,12v76
	C100,94.6,94.6,100,88,100z"/>
<path id="text" fill="#FFFFFF" d="M9.5,90.9l2.6-6.8h1l2.8,6.8h-1l-0.8-2h-2.8l-0.7,2H9.5z M11.4,88.1h2.3L13,86.2
	c-0.2-0.6-0.4-1-0.5-1.4c-0.1,0.4-0.2,0.9-0.4,1.3L11.4,88.1z M17.5,90.9v-6h-2.2v-0.8h5.4v0.8h-2.2v6H17.5z M23.3,90.9v-6H21v-0.8
	h5.4v0.8h-2.2v6H23.3z M25.9,90.9l2.6-6.8h1l2.8,6.8h-1l-0.8-2h-2.8l-0.7,2H25.9z M27.8,88.1h2.3l-0.7-1.9c-0.2-0.6-0.4-1-0.5-1.4
	c-0.1,0.4-0.2,0.9-0.4,1.3L27.8,88.1z M37.7,88.5l0.9,0.2c-0.2,0.7-0.5,1.3-1,1.7c-0.5,0.4-1.1,0.6-1.8,0.6s-1.3-0.1-1.8-0.4
	s-0.8-0.7-1-1.3c-0.2-0.6-0.4-1.2-0.4-1.8c0-0.7,0.1-1.3,0.4-1.8c0.3-0.5,0.7-0.9,1.1-1.2c0.5-0.3,1-0.4,1.6-0.4
	c0.7,0,1.2,0.2,1.7,0.5s0.8,0.8,1,1.5l-0.9,0.2c-0.2-0.5-0.4-0.8-0.7-1.1c-0.3-0.2-0.7-0.3-1.1-0.3c-0.5,0-1,0.1-1.3,0.4
	c-0.3,0.2-0.6,0.6-0.7,1c-0.1,0.4-0.2,0.9-0.2,1.3c0,0.6,0.1,1.1,0.3,1.5s0.4,0.7,0.8,1c0.4,0.2,0.7,0.3,1.1,0.3
	c0.5,0,0.9-0.1,1.3-0.4C37.4,89.5,37.6,89.1,37.7,88.5z M39.7,90.9v-6.8h0.9v3.3l3.4-3.3h1.2l-2.8,2.7l3,4h-1.2l-2.4-3.4l-1.1,1.1
	v2.3h-1V90.9z M48.6,90.9v-6.8h2.5c0.4,0,0.8,0,1,0.1c0.3,0.1,0.6,0.2,0.8,0.3c0.2,0.2,0.4,0.4,0.5,0.7c0.1,0.3,0.2,0.6,0.2,0.9
	c0,0.6-0.2,1.1-0.5,1.5c-0.4,0.4-1,0.6-2,0.6h-1.7v2.7C49.4,90.9,48.6,90.9,48.6,90.9z M49.5,87.3h1.7c0.6,0,1-0.1,1.2-0.3
	s0.4-0.5,0.4-0.9c0-0.3-0.1-0.5-0.2-0.7c-0.1-0.2-0.3-0.3-0.6-0.4c-0.2,0-0.4-0.1-0.8-0.1h-1.7C49.5,84.9,49.5,87.3,49.5,87.3z
	 M53.5,90.9l2.6-6.8h1l2.8,6.8h-1l-0.8-2h-2.8l-0.7,2H53.5z M55.4,88.1h2.3L57,86.2c-0.2-0.6-0.4-1-0.5-1.4
	c-0.1,0.4-0.2,0.9-0.4,1.3L55.4,88.1z M61.5,90.9v-6h-2.2v-0.8h5.4v0.8h-2.2v6H61.5z M67.3,90.9v-6h-2.2v-0.8h5.4v0.8h-2.2v6H67.3z
	 M71.4,90.9v-6.8h4.9v0.8h-4V87H76v0.8h-3.7v2.3h4.1v0.8C76.4,90.9,71.4,90.9,71.4,90.9z M77.6,90.9v-6.8h3c0.6,0,1.1,0.1,1.4,0.2
	s0.6,0.3,0.8,0.6c0.2,0.3,0.3,0.6,0.3,1c0,0.5-0.2,0.9-0.5,1.2c-0.3,0.3-0.8,0.5-1.4,0.6c0.2,0.1,0.4,0.2,0.5,0.3
	c0.3,0.2,0.5,0.5,0.7,0.9l1.2,1.8h-1.1l-0.9-1.4c-0.3-0.4-0.5-0.7-0.6-0.9s-0.3-0.4-0.5-0.5c-0.1-0.1-0.3-0.1-0.4-0.2
	c-0.1,0-0.3,0-0.5,0h-1v3h-1V90.9z M78.5,87.1h1.9c0.4,0,0.7,0,1-0.1c0.2-0.1,0.4-0.2,0.5-0.4c0.1-0.2,0.2-0.4,0.2-0.6
	c0-0.3-0.1-0.6-0.3-0.8c-0.2-0.2-0.6-0.3-1.1-0.3h-2.1L78.5,87.1L78.5,87.1z M84.4,90.9v-6.8h0.9l3.5,5.3v-5.3h0.9v6.8h-0.9
	l-3.5-5.3v5.3H84.4z"/>
<path id="icon" fill="#FFFFFF" d="M64.2,23.7c0.4-2.8-1.2-7.6-5.2-7.5c-2.6,0.1-3.8,1-4.7-0.1c-1.2-1.4-2.6-2.7-3.2-2.5
	c-0.6,0.3-0.8,4.5-0.8,4.5s-6.4,2-7,5.5c-0.3,1.8-7.5,4.2-7.5,4.2s0.6,5.6,1.3,5.8s1.7,0.1,1.7,0.1L38.2,35l2.3,0.1
	c0,0,1.6-2.9,2.8-2.6c2.5,0.6,5.1-0.6,5.1-0.6s-18.4,13-5.9,25.4c0.4,2.5,0.5,3.8,0.5,3.8s-4,1.7-4.3,3.6c-0.3,1.9,1.1,3.8,1.1,3.8
	h-2.6v3.6h26.7v-3.6H61c0,0,1.5-2,0.9-3.8c-0.7-2.2-4.1-3.5-4.1-3.5l0.1-4.3c0,0,2.9-0.6,4.1-1.6c-2.2-0.6-2.7-10.3-2.5-14.1
	C59.7,37.1,63.7,27,64.2,23.7z"/>
</svg>
