<?xml version="1.0" encoding="utf-8"?>
<!-- Generator: Adobe Illustrator 20.1.0, SVG Export Plug-In . SVG Version: 6.00 Build 0)  -->
<svg version="1.1" id="campaign-b" xmlns="http://www.w3.org/2000/svg" xmlns:xlink="http://www.w3.org/1999/xlink" x="0px"
	 y="0px" width="100px" height="100px" viewBox="22 6 100 100" xml:space="preserve">
<path fill="#006699" d="M56.007,35.463c-5.825,0-10.545,4.728-10.545,10.55s4.72,10.548,10.545,10.548s10.55-4.726,10.55-10.548
					S61.833,35.463,56.007,35.463z M61.41,40.403c-0.714-0.782-0.927-1.75-0.468-2.169c0.457-0.421,1.402-0.121,2.116,0.661
					c0.716,0.781,0.922,1.756,0.472,2.173C63.071,41.479,62.125,41.183,61.41,40.403z M44.64,54.583
					c-5.809,0-10.535,4.724-10.535,10.548c0,5.822,4.727,10.548,10.535,10.548c5.815,0,10.543-4.726,10.543-10.548
					C55.183,59.307,50.456,54.583,44.64,54.583z M50.038,59.52c-0.719-0.779-0.931-1.753-0.472-2.167
					c0.456-0.42,1.404-0.123,2.118,0.658c0.714,0.784,0.922,1.759,0.469,2.173C51.697,60.601,50.749,60.301,50.038,59.52z
					 M66.663,54.583c-5.822,0-10.55,4.724-10.55,10.548c0,5.822,4.728,10.548,10.55,10.548c5.825,0,10.552-4.726,10.552-10.548
					C77.215,59.307,72.488,54.583,66.663,54.583z M72.065,59.52c-0.711-0.779-0.926-1.753-0.467-2.167
					c0.457-0.42,1.404-0.123,2.119,0.658c0.713,0.784,0.922,1.759,0.471,2.173C73.727,60.601,72.784,60.301,72.065,59.52z
					 M99.522,73.812c-5.824,0-10.549,4.724-10.549,10.55c0,5.822,4.725,10.546,10.549,10.546c5.822,0,10.549-4.724,10.549-10.546
					C110.071,78.535,105.345,73.812,99.522,73.812z M104.925,78.75c-0.715-0.781-0.928-1.754-0.469-2.169
					c0.457-0.42,1.402-0.121,2.119,0.661c0.713,0.781,0.924,1.757,0.469,2.175C106.587,79.829,105.638,79.529,104.925,78.75z
					 M88.757,54.583c-5.822,0-10.55,4.726-10.55,10.55s4.728,10.548,10.55,10.548c5.828,0,10.551-4.724,10.551-10.548
					S94.585,54.583,88.757,54.583z M94.161,59.523c-0.713-0.779-0.93-1.754-0.467-2.169c0.455-0.42,1.402-0.121,2.113,0.661
					c0.717,0.779,0.924,1.759,0.473,2.171C95.821,60.604,94.876,60.303,94.161,59.523z M78.066,35.467
					c-5.825,0-10.551,4.726-10.551,10.548c0,5.826,4.727,10.55,10.551,10.55c5.823,0,10.548-4.724,10.548-10.55
					C88.614,40.192,83.89,35.467,78.066,35.467z M83.468,40.405c-0.715-0.779-0.928-1.752-0.469-2.167
					c0.457-0.42,1.404-0.121,2.117,0.659c0.715,0.781,0.922,1.759,0.471,2.177C85.128,41.486,84.183,41.187,83.468,40.405z
					 M77.393,73.812c-5.825,0-10.551,4.724-10.551,10.55c0,5.822,4.727,10.546,10.551,10.546c5.823,0,10.548-4.724,10.548-10.546
					C87.94,78.535,83.216,73.812,77.393,73.812z M82.796,78.75c-0.714-0.781-0.929-1.754-0.469-2.169
					c0.455-0.42,1.4-0.121,2.117,0.661c0.717,0.781,0.922,1.757,0.469,2.175C84.456,79.829,83.509,79.529,82.796,78.75z
					 M55.325,73.812c-5.825,0-10.542,4.724-10.542,10.55c0,5.822,4.717,10.546,10.542,10.546s10.55-4.724,10.55-10.546
					C65.875,78.535,61.15,73.812,55.325,73.812z M60.727,78.75c-0.714-0.781-0.928-1.754-0.469-2.169
					c0.458-0.42,1.403-0.121,2.12,0.661c0.714,0.781,0.922,1.757,0.469,2.175C62.388,79.829,61.441,79.529,60.727,78.75z
					 M33.281,73.812c-5.825,0-10.55,4.724-10.55,10.55c0,5.822,4.725,10.546,10.55,10.546c5.824,0,10.539-4.724,10.539-10.546
					C43.82,78.535,39.105,73.812,33.281,73.812z M38.683,78.75c-0.714-0.781-0.926-1.754-0.47-2.169
					c0.459-0.42,1.403-0.121,2.119,0.661c0.714,0.781,0.922,1.757,0.47,2.175C40.344,79.829,39.396,79.529,38.683,78.75z
					 M67.336,16.363c-5.825,0-10.55,4.727-10.55,10.548c0,5.826,4.725,10.548,10.55,10.548c5.826,0,10.548-4.722,10.548-10.548
					C77.885,21.09,73.162,16.363,67.336,16.363z M72.741,21.302c-0.714-0.779-0.931-1.755-0.472-2.166
					c0.457-0.419,1.405-0.121,2.118,0.658c0.715,0.781,0.922,1.759,0.473,2.173C74.4,22.383,73.455,22.083,72.741,21.302z
					 M103.802,69.641c-3.594,0-6.764,1.848-8.605,4.643c1.621-1.066,3.563-1.692,5.652-1.692c5.688,0,10.299,4.611,10.299,10.297
					c0,2.092-0.623,4.031-1.689,5.654c2.793-1.842,4.641-5.013,4.641-8.604C114.099,74.254,109.485,69.641,103.802,69.641z
					 M111.142,75.111c-0.445,0.404-1.367,0.11-2.064-0.651c-0.699-0.761-0.91-1.708-0.459-2.116
					c0.445-0.409,1.367-0.118,2.066,0.646C111.382,73.75,111.583,74.704,111.142,75.111z M107.583,65.594
					c-3.51,0-6.607,1.802-8.406,4.53c1.586-1.04,3.484-1.652,5.523-1.652c5.555,0,10.059,4.503,10.059,10.058
					c0,2.043-0.609,3.94-1.65,5.522c2.729-1.797,4.531-4.894,4.531-8.405C117.64,70.099,113.136,65.594,107.583,65.594z
					 M114.753,70.936c-0.434,0.394-1.338,0.11-2.021-0.635c-0.676-0.748-0.881-1.672-0.445-2.066
					c0.436-0.401,1.336-0.117,2.021,0.629C114.987,69.606,115.187,70.539,114.753,70.936z M93.036,50.715
					c-3.596,0-6.764,1.851-8.605,4.644c1.621-1.066,3.564-1.688,5.656-1.688c5.686,0,10.297,4.609,10.297,10.295
					c0,2.088-0.625,4.031-1.691,5.652c2.797-1.842,4.643-5.011,4.643-8.604C103.335,55.328,98.722,50.715,93.036,50.715z
					 M100.378,56.188c-0.447,0.401-1.371,0.113-2.066-0.649c-0.697-0.763-0.906-1.712-0.457-2.118
					c0.445-0.409,1.369-0.116,2.064,0.646C100.616,54.829,100.819,55.783,100.378,56.188z M82.345,31.602
					c-3.595,0-6.765,1.848-8.604,4.641c1.619-1.066,3.563-1.69,5.654-1.69c5.685,0,10.3,4.608,10.3,10.295
					c0,2.09-0.627,4.033-1.695,5.654c2.795-1.84,4.641-5.011,4.641-8.604C92.64,36.215,88.028,31.602,82.345,31.602z M89.685,37.07
					c-0.445,0.406-1.367,0.112-2.064-0.649c-0.699-0.763-0.906-1.71-0.459-2.113c0.447-0.412,1.369-0.121,2.064,0.641
					C89.923,35.713,90.128,36.665,89.685,37.07z M96.819,46.911c-3.51,0-6.607,1.806-8.404,4.532c1.584-1.04,3.48-1.65,5.521-1.65
					c5.553,0,10.061,4.503,10.061,10.056c0,2.043-0.611,3.939-1.654,5.522c2.73-1.797,4.535-4.896,4.535-8.402
					C106.878,51.416,102.372,46.911,96.819,46.911z M103.991,52.255c-0.438,0.396-1.338,0.11-2.021-0.635
					c-0.682-0.746-0.885-1.67-0.445-2.064c0.436-0.401,1.338-0.117,2.016,0.629C104.222,50.928,104.421,51.86,103.991,52.255z
					 M111.452,61.53c-3.428,0-6.447,1.764-8.205,4.427c1.547-1.016,3.398-1.614,5.395-1.614c5.42,0,9.814,4.399,9.814,9.817
					c0,1.996-0.596,3.847-1.613,5.391c2.668-1.754,4.428-4.774,4.428-8.203C121.271,65.93,116.874,61.53,111.452,61.53z
					 M118.452,66.747c-0.426,0.385-1.305,0.108-1.973-0.618c-0.664-0.729-0.861-1.631-0.438-2.018
					c0.428-0.393,1.309-0.114,1.973,0.611C118.681,65.449,118.872,66.36,118.452,66.747z"/>
</svg>
