<?xml version="1.0" encoding="utf-8"?>
<!-- Generator: Adobe Illustrator 20.1.0, SVG Export Plug-In . SVG Version: 6.00 Build 0)  -->
<svg version="1.1" id="courseofactionb" xmlns="http://www.w3.org/2000/svg" xmlns:xlink="http://www.w3.org/1999/xlink" x="0px"
	 y="0px" width="59.8px" height="55.3px" viewBox="0 0 59.8 55.3" enable-background="new 0 0 59.8 55.3" xml:space="preserve">
<path id="icon" fill="#39B54A" d="M52,8.5H40.7v-2c0-1.8-0.7-3.4-1.9-4.6C37.5,0.7,35.9,0,34.1,0h-8.4c-1.8,0-3.5,0.7-4.6,1.9
	c-1.2,1.2-1.9,2.8-1.9,4.6v2H7.8C3.5,8.5,0,12.1,0,16.4v31.2c0,4.3,3.5,7.8,7.8,7.8H52c4.3,0,7.8-3.5,7.8-7.8V16.4
	C59.8,12.1,56.3,8.5,52,8.5z M23.7,6.8c0-0.8,0.3-1.6,0.9-2.1v0c0.5-0.5,1.3-0.9,2.1-0.9h6.6c0.8,0,1.5,0.3,2.1,0.8
	c0.5,0.5,0.9,1.3,0.9,2.1v1.6H23.7V6.8z M44.2,36c0,0.8-0.6,1.4-1.4,1.4h-7.4v7.4c0,0.8-0.6,1.4-1.4,1.4h-8.2
	c-0.8,0-1.4-0.6-1.4-1.4v-7.4H17c-0.8,0-1.4-0.6-1.4-1.4v-8.3c0-0.7,0.6-1.4,1.4-1.4h7.4V19c0-0.8,0.6-1.4,1.4-1.4H34
	c0.8,0,1.4,0.6,1.4,1.4v7.4h7.4c0.7,0,1.4,0.6,1.4,1.4V36z"/>
</svg>
