<?xml version="1.0" encoding="utf-8"?>
<!-- Generator: Adobe Illustrator 20.1.0, SVG Export Plug-In . SVG Version: 6.00 Build 0)  -->
<svg version="1.1" id="courseofaction" xmlns="http://www.w3.org/2000/svg" xmlns:xlink="http://www.w3.org/1999/xlink" x="0px"
	 y="0px" width="100px" height="100px" viewBox="0 0 100 100" enable-background="new 0 0 100 100" xml:space="preserve">
<path id="base" fill="#39B54A" d="M88,100H12c-6.6,0-12-5.4-12-12V12C0,5.4,5.4,0,12,0h76c6.6,0,12,5.4,12,12v76
	C100,94.6,94.6,100,88,100z"/>
<path id="text" fill="#FFFFFF" d="M12.2,88.5l0.9,0.2c-0.2,0.7-0.5,1.3-1,1.7C11.6,90.8,11,91,10.3,91S9,90.9,8.5,90.6
	s-0.8-0.7-1-1.3c-0.2-0.6-0.4-1.2-0.4-1.8c0-0.7,0.1-1.3,0.4-1.8s0.7-0.9,1.1-1.2c0.5-0.3,1-0.4,1.6-0.4c0.7,0,1.2,0.2,1.7,0.5
	s0.8,0.8,1,1.5L12,86.3c-0.2-0.5-0.4-0.8-0.7-1.1c-0.3-0.2-0.7-0.3-1.1-0.3c-0.5,0-1,0.1-1.3,0.4c-0.3,0.2-0.6,0.6-0.7,1
	C8.1,86.6,8,87,8,87.4c0,0.6,0.1,1.1,0.3,1.5s0.4,0.7,0.8,1c0.4,0.2,0.7,0.3,1.1,0.3c0.5,0,0.9-0.1,1.3-0.4
	C11.8,89.5,12,89.1,12.2,88.5z M13.4,87.6c0-1.1,0.3-2,0.9-2.6c0.6-0.6,1.4-1,2.3-1c0.6,0,1.2,0.1,1.7,0.4s0.9,0.7,1.1,1.2
	c0.3,0.5,0.4,1.1,0.4,1.8c0,0.7-0.1,1.3-0.4,1.8s-0.7,0.9-1.2,1.2c-0.5,0.3-1.1,0.4-1.6,0.4c-0.6,0-1.2-0.2-1.7-0.5S14,89.6,13.8,89
	C13.6,88.7,13.4,88.2,13.4,87.6z M14.3,87.6c0,0.8,0.2,1.5,0.7,1.9c0.4,0.5,1,0.7,1.6,0.7c0.7,0,1.2-0.2,1.7-0.7
	c0.4-0.5,0.7-1.1,0.7-2c0-0.6-0.1-1-0.3-1.4c-0.2-0.4-0.5-0.7-0.8-1c-0.4-0.2-0.8-0.3-1.2-0.3c-0.6,0-1.2,0.2-1.6,0.7
	C14.6,85.9,14.3,86.6,14.3,87.6z M25,84.1h0.9V88c0,0.7-0.1,1.2-0.2,1.6c-0.2,0.4-0.4,0.7-0.8,1C24.5,90.8,24,91,23.3,91
	c-0.6,0-1.2-0.1-1.6-0.3c-0.4-0.2-0.7-0.5-0.9-0.9c-0.2-0.4-0.3-1-0.3-1.7v-3.9h0.9V88c0,0.6,0.1,1,0.2,1.3s0.3,0.5,0.6,0.6
	c0.3,0.2,0.6,0.2,1,0.2c0.7,0,1.1-0.1,1.4-0.4S25,88.8,25,88V84.1z M26.9,90.9v-6.8h3c0.6,0,1.1,0.1,1.4,0.2s0.6,0.3,0.8,0.6
	c0.2,0.3,0.3,0.6,0.3,1c0,0.5-0.2,0.9-0.5,1.2c-0.3,0.3-0.8,0.5-1.4,0.6c0.2,0.1,0.4,0.2,0.5,0.3c0.3,0.2,0.5,0.5,0.7,0.9l1.2,1.8
	h-1.1l-0.9-1.4c-0.3-0.4-0.5-0.7-0.6-0.9c-0.2-0.2-0.3-0.4-0.5-0.5s-0.3-0.1-0.4-0.2c-0.1,0-0.3,0-0.5,0h-1v3h-1V90.9z M27.8,87.1
	h1.9c0.4,0,0.7,0,1-0.1c0.2-0.1,0.4-0.2,0.5-0.4c0.1-0.2,0.2-0.4,0.2-0.6c0-0.3-0.1-0.6-0.3-0.8c-0.2-0.2-0.6-0.3-1.1-0.3h-2.1v2.2
	H27.8z M32.9,88.7l0.8-0.1c0,0.3,0.1,0.6,0.3,0.8c0.1,0.2,0.4,0.4,0.7,0.5s0.7,0.2,1,0.2s0.6-0.1,0.9-0.2c0.3-0.1,0.5-0.2,0.6-0.4
	c0.1-0.2,0.2-0.4,0.2-0.6s-0.1-0.4-0.2-0.6c-0.1-0.2-0.3-0.3-0.6-0.4c-0.2-0.1-0.6-0.2-1.2-0.3c-0.6-0.1-1.1-0.3-1.3-0.4
	c-0.3-0.2-0.6-0.4-0.7-0.6c-0.2-0.3-0.2-0.5-0.2-0.8s0.1-0.7,0.3-1s0.5-0.5,0.8-0.7c0.4-0.2,0.8-0.2,1.2-0.2c0.5,0,0.9,0.1,1.3,0.2
	c0.4,0.2,0.7,0.4,0.9,0.7c0.2,0.3,0.3,0.7,0.3,1.1L37.1,86c0-0.4-0.2-0.7-0.5-1c-0.3-0.2-0.7-0.3-1.2-0.3s-0.9,0.1-1.2,0.3
	c-0.2,0.2-0.4,0.4-0.4,0.7c0,0.2,0.1,0.4,0.3,0.6s0.6,0.3,1.3,0.5s1.2,0.3,1.5,0.4c0.4,0.2,0.7,0.4,0.9,0.7c0.2,0.3,0.3,0.6,0.3,1
	s-0.1,0.7-0.3,1s-0.5,0.6-0.9,0.7c-0.4,0.2-0.8,0.3-1.3,0.3c-0.6,0-1.1-0.1-1.5-0.3c-0.4-0.2-0.7-0.4-1-0.8
	C33.1,89.6,33,89.2,32.9,88.7z M39.1,90.9v-6.8H44v0.8h-4V87h3.7v0.8H40v2.3h4.1v0.8C44.1,90.9,39.1,90.9,39.1,90.9z M46.8,87.6
	c0-1.1,0.3-2,0.9-2.6c0.6-0.6,1.4-1,2.3-1c0.6,0,1.2,0.1,1.7,0.4s0.9,0.7,1.1,1.2c0.3,0.5,0.4,1.1,0.4,1.8c0,0.7-0.1,1.3-0.4,1.8
	s-0.7,0.9-1.2,1.2c-0.5,0.4-1,0.6-1.6,0.6s-1.2-0.2-1.7-0.5s-0.9-0.7-1.1-1.3C46.9,88.7,46.8,88.2,46.8,87.6z M47.7,87.6
	c0,0.8,0.2,1.5,0.7,1.9c0.4,0.5,1,0.7,1.6,0.7c0.7,0,1.2-0.2,1.7-0.7c0.4-0.5,0.7-1.1,0.7-2c0-0.6-0.1-1-0.3-1.4s-0.5-0.7-0.8-1
	c-0.4-0.2-0.8-0.3-1.2-0.3c-0.6,0-1.2,0.2-1.6,0.7C47.9,85.9,47.7,86.6,47.7,87.6z M53.9,90.9v-6.8h4.6v0.8h-3.7V87H58v0.8h-3.2v3.1
	H53.9z M60.1,90.9l2.6-6.8h1l2.8,6.8h-1l-0.8-2h-2.8l-0.7,2H60.1z M62,88.1h2.3l-0.7-1.9c-0.2-0.6-0.4-1-0.5-1.4
	c-0.1,0.4-0.2,0.9-0.4,1.3L62,88.1z M71.5,88.5l0.9,0.2c-0.2,0.7-0.5,1.3-1,1.7c-0.5,0.4-1.1,0.6-1.8,0.6c-0.7,0-1.3-0.1-1.8-0.4
	s-0.8-0.7-1-1.3c-0.2-0.6-0.4-1.2-0.4-1.8c0-0.7,0.1-1.3,0.4-1.8s0.7-0.9,1.1-1.2c0.5-0.3,1-0.4,1.6-0.4c0.7,0,1.2,0.2,1.7,0.5
	s0.8,0.8,1,1.5l-0.9,0.2c-0.2-0.5-0.4-0.8-0.7-1.1c-0.3-0.2-0.7-0.3-1.1-0.3c-0.5,0-1,0.1-1.3,0.4c-0.3,0.2-0.6,0.6-0.7,1
	s-0.2,0.9-0.2,1.3c0,0.6,0.1,1.1,0.3,1.5c0.2,0.4,0.4,0.7,0.8,1c0.4,0.2,0.7,0.3,1.1,0.3c0.5,0,0.9-0.1,1.3-0.4
	C71.1,89.5,71.3,89.1,71.5,88.5z M74.7,90.9v-6h-2.2v-0.8h5.4v0.8h-2.2v6H74.7z M78.4,90.9v-6.8h0.9v6.8H78.4z M80.2,87.6
	c0-1.1,0.3-2,0.9-2.6s1.4-1,2.3-1c0.6,0,1.2,0.1,1.7,0.4s0.9,0.7,1.1,1.2c0.3,0.5,0.4,1.1,0.4,1.8c0,0.7-0.1,1.3-0.4,1.8
	s-0.7,0.9-1.2,1.2c-0.5,0.4-1,0.6-1.6,0.6s-1.2-0.2-1.7-0.5s-0.9-0.7-1.1-1.3C80.3,88.7,80.2,88.2,80.2,87.6z M81.1,87.6
	c0,0.8,0.2,1.5,0.7,1.9c0.4,0.5,1,0.7,1.6,0.7c0.7,0,1.2-0.2,1.7-0.7c0.4-0.5,0.7-1.1,0.7-2c0-0.6-0.1-1-0.3-1.4
	c-0.2-0.4-0.5-0.7-0.8-1c-0.4-0.2-0.8-0.3-1.2-0.3c-0.6,0-1.2,0.2-1.6,0.7C81.3,85.9,81.1,86.6,81.1,87.6z M87.3,90.9v-6.8h0.9
	l3.5,5.3v-5.3h0.9v6.8h-0.9l-3.5-5.3v5.3H87.3z"/>
<path id="icon" fill="#FFFFFF" d="M70.9,28.1H60.1v-1.9c0-1.7-0.7-3.3-1.8-4.4S55.6,20,53.9,20H46c-1.7,0-3.3,0.7-4.4,1.8
	c-1.1,1.1-1.8,2.7-1.8,4.4v1.9H29.1c-4,0-7.4,3.3-7.4,7.4v29.4c0,4,3.3,7.3,7.4,7.3h41.7c4,0,7.4-3.3,7.4-7.3V35.5
	C78.2,31.4,74.9,28.1,70.9,28.1z M44.1,26.5c0-0.8,0.3-1.5,0.8-2l0,0c0.5-0.5,1.2-0.8,2-0.8h6.2c0.8,0,1.5,0.3,2,0.8s0.8,1.2,0.8,2
	V28H44.1V26.5z M63.5,54c0,0.7-0.6,1.3-1.3,1.3h-7v7c0,0.7-0.6,1.3-1.3,1.3h-7.8c-0.7,0-1.3-0.6-1.3-1.3v-7h-7
	c-0.7,0-1.3-0.6-1.3-1.3v-7.8c0-0.7,0.6-1.3,1.3-1.3h7v-7c0-0.7,0.6-1.3,1.3-1.3h7.8c0.7,0,1.3,0.6,1.3,1.3v7h7
	c0.7,0,1.3,0.6,1.3,1.3V54z"/>
</svg>
