<?xml version="1.0" encoding="utf-8"?>
<!-- Generator: Adobe Illustrator 20.1.0, SVG Export Plug-In . SVG Version: 6.00 Build 0)  -->
<svg version="1.1" id="identity" xmlns="http://www.w3.org/2000/svg" xmlns:xlink="http://www.w3.org/1999/xlink" x="0px" y="0px"
	 width="100px" height="100px" viewBox="0 0 100 100" enable-background="new 0 0 100 100" xml:space="preserve">
<path id="base" fill="#6D7577" d="M88,100H12c-6.6,0-12-5.4-12-12V12C0,5.4,5.4,0,12,0h76c6.6,0,12,5.4,12,12v76
	C100,94.6,94.6,100,88,100z"/>
<path id="text" fill="#FFFFFF" d="M29.5,90.9v-6.8h0.9v6.8H29.5z M31.9,90.9v-6.8h2.3c0.5,0,0.9,0,1.2,0.1c0.4,0.1,0.7,0.3,1,0.5
	c0.4,0.3,0.6,0.7,0.8,1.2s0.3,1,0.3,1.6c0,0.5-0.1,1-0.2,1.4c-0.1,0.4-0.3,0.7-0.5,1s-0.4,0.5-0.6,0.6c-0.2,0.1-0.5,0.3-0.8,0.3
	c-0.3,0.1-0.7,0.1-1.1,0.1C34.3,90.9,31.9,90.9,31.9,90.9z M32.8,90.1h1.4c0.4,0,0.8,0,1-0.1s0.5-0.2,0.6-0.4
	c0.2-0.2,0.4-0.5,0.5-0.9s0.2-0.8,0.2-1.3c0-0.7-0.1-1.2-0.3-1.6s-0.5-0.6-0.8-0.8c-0.2-0.1-0.6-0.1-1.2-0.1h-1.4V90.1z M38.8,90.9
	v-6.8h4.9v0.8h-4V87h3.7v0.8h-3.7v2.3h4.1v0.8C43.8,90.9,38.8,90.9,38.8,90.9z M45,90.9v-6.8h1l3.5,5.3v-5.3h0.9v6.8h-0.9L46,85.6
	v5.3H45z M53.6,90.9v-6h-2.2v-0.8h5.4v0.8h-2.2v6H53.6z M57.8,90.9v-6.8h0.9v6.8H57.8z M62,90.9v-6h-2.2v-0.8h5.4v0.8H63v6H62z
	 M67.9,90.9V88l-2.6-3.9h1.1l1.3,2c0.2,0.4,0.5,0.8,0.7,1.1c0.2-0.4,0.4-0.8,0.7-1.2l1.3-2h1l-2.6,4v2.9H67.9z"/>
<path id="icon" fill="#FFFFFF" d="M82,71.2c-0.9-1-1-3.8-1-3.8l-0.4-3.1c-0.1-1.9-1.5-3-1.5-3l-4.7-2.2l-9.8-4.5
	c-2.4-1-4.4-4.5-4.4-4.5h-0.5l0.4-3.3c1-1,1.3-3.1,1.3-3.1l0.4-3.2c1.2,0.7,1.8-0.4,1.8-0.4c1.3-1,1.1-5.3,1.1-5.3
	c-0.1-3.2-0.8-2.8-1.2-2.3c0.1-0.3,0.3-0.5,0.3-0.5c0.6-7.7-1.1-9.9-1.1-9.9c-1.9-2.7-3.8-2.9-3.8-2.9c-2.2-2.6-9.2-2.7-10.1-2.2
	c0.2-0.2-2.8,1-2.8,1c-2.9,1.3-2.7,2.8-2.7,2.8c-4.7,2.1-2.5,12-2.5,12c-1-0.4-1,1.3-1,1.3c-0.4,3.5,0.9,6.2,0.9,6.2
	c0.6,1.3,2.2,1,2.2,1c0.2,4.9,1.5,4.8,1.5,4.8l-0.2,3.5l-0.4-0.1c-0.4,1.1-4.7,4.5-4.7,4.5c-3.6,0.4-11.4,4.8-11.4,4.8
	c-6.3,0.1-6.5,3.6-6.5,3.6c-0.5,1.3-0.4,4.2-0.4,4.2c-1.9,3.3-1.9,4.1-1.9,4.1c0,2.5-1,4.8-1,4.8h64L82,75
	C82.5,73.9,82,71.2,82,71.2z"/>
</svg>
