<?xml version="1.0" encoding="utf-8"?>
<!-- Generator: Adobe Illustrator 20.1.0, SVG Export Plug-In . SVG Version: 6.00 Build 0)  -->
<svg version="1.1" id="indicatorb" xmlns="http://www.w3.org/2000/svg" xmlns:xlink="http://www.w3.org/1999/xlink" x="0px" y="0px"
	 width="61.4px" height="63.1px" viewBox="0 0 61.4 63.1" enable-background="new 0 0 61.4 63.1" xml:space="preserve">
<path id="icon" fill="#BFB213" d="M40.7,11c0.8,2,1.3,5.4,1.3,7.8c0,6.5-1.8,12-8.8,15.9V63h12V11H40.7z M61.4,63h-12V27.5h12V63z
	 M28.6,63.1h-12V42.6h12V63.1z M0.5,36.6c-0.7,0.6-0.7,1.7,0,2.3c0.6,0.6,1.7,0.6,2.3,0l7.1-7.1c1.4,1.2,2.9,2.1,4.6,2.8
	c2.1,0.9,4.5,1.4,6.9,1.4c2.4,0,4.8-0.5,6.9-1.4c2.2-0.9,4.2-2.3,5.8-3.9h0c1.6-1.7,3-3.7,3.9-5.8l0-0.1c0.8-2.1,1.3-4.4,1.3-6.8
	c0-2.4-0.5-4.8-1.4-6.9c-0.9-2.2-2.3-4.2-3.9-5.9C31,2,26.5,0,21.5,0c-2.4,0-4.8,0.4-6.9,1.3h0c-2.2,0.9-4.2,2.3-5.8,3.9L8.7,5.4
	C7.1,7,5.7,8.9,4.8,11.1l0,0.1c-0.9,2.1-1.3,4.4-1.3,6.8c0,2.4,0.5,4.8,1.4,6.9c0.7,1.7,1.7,3.2,2.8,4.6L0.5,36.6L0.5,36.6z
	 M11.1,28.4c-1.4-1.4-2.5-3-3.2-4.8C7.2,21.9,6.8,20,6.8,18c0-2,0.4-3.8,1.1-5.6l0-0.1C8.6,10.6,9.7,9,11,7.7l0.1-0.1
	c1.4-1.3,3-2.5,4.8-3.2l0,0c1.7-0.7,3.7-1.1,5.6-1.1c4.1,0,7.7,1.6,10.4,4.3c1.4,1.4,2.5,3,3.2,4.8c0.7,1.7,1.1,3.6,1.1,5.6
	c0,2-0.4,3.8-1.1,5.5l0,0.1c-0.7,1.8-1.8,3.4-3.2,4.8l0,0c-1.4,1.3-3,2.4-4.8,3.2c-1.7,0.7-3.6,1.1-5.6,1.1c-2,0-3.9-0.4-5.6-1.1
	C14.1,30.8,12.5,29.7,11.1,28.4L11.1,28.4L11.1,28.4L11.1,28.4L11.1,28.4z M10.8,17c-0.6,0-1,0.4-1,1c0,1.5,0.3,3,0.9,4.4l0,0.1
	c0.6,1.3,1.4,2.6,2.5,3.7c1.1,1.1,2.4,2,3.8,2.5c1.4,0.6,3,0.9,4.5,0.9c0.6,0,1-0.4,1-1c0-0.5-0.4-1-1-1c-1.3,0-2.5-0.2-3.7-0.7
	c-1.1-0.5-2.2-1.2-3.1-2.1c-0.9-0.9-1.6-2-2.1-3.1l0,0c-0.5-1.2-0.7-2.4-0.7-3.7C11.8,17.4,11.4,17,10.8,17L10.8,17L10.8,17z"/>
</svg>
