<?xml version="1.0" encoding="utf-8"?>
<!-- Generator: Adobe Illustrator 20.1.0, SVG Export Plug-In . SVG Version: 6.00 Build 0)  -->
<svg version="1.1" id="indicator" xmlns="http://www.w3.org/2000/svg" xmlns:xlink="http://www.w3.org/1999/xlink" x="0px" y="0px"
	 width="100px" height="100px" viewBox="0 0 100 100" enable-background="new 0 0 100 100" xml:space="preserve">
<path id="base" fill="#BFB213" d="M88,100H12c-6.6,0-12-5.4-12-12V12C0,5.4,5.4,0,12,0h76c6.6,0,12,5.4,12,12v76
	C100,94.6,94.6,100,88,100z"/>
<path id="text" fill="#FFFFFF" d="M25.4,90.9v-6.8h0.9v6.8H25.4z M27.8,90.9v-6.8h0.9l3.5,5.3v-5.3h0.9v6.8h-0.9l-3.5-5.3v5.3H27.8z
	 M34.7,90.9v-6.8H37c0.5,0,0.9,0,1.2,0.1c0.4,0.1,0.7,0.3,1,0.5c0.4,0.3,0.6,0.7,0.8,1.2s0.3,1,0.3,1.6c0,0.5-0.1,1-0.2,1.4
	c-0.1,0.4-0.3,0.7-0.5,1s-0.4,0.5-0.6,0.6c-0.2,0.1-0.5,0.3-0.8,0.3c-0.3,0.1-0.7,0.1-1.1,0.1C37.1,90.9,34.7,90.9,34.7,90.9z
	 M35.5,90.1H37c0.4,0,0.8,0,1-0.1s0.5-0.2,0.6-0.4c0.2-0.2,0.4-0.5,0.5-0.9s0.2-0.8,0.2-1.3c0-0.7-0.1-1.2-0.3-1.6s-0.5-0.6-0.8-0.8
	c-0.2-0.1-0.6-0.1-1.2-0.1h-1.4L35.5,90.1L35.5,90.1z M41.6,90.9v-6.8h0.9v6.8H41.6z M48.9,88.5l0.9,0.2c-0.2,0.7-0.5,1.3-1,1.7
	C48.3,90.8,47.7,91,47,91s-1.3-0.1-1.8-0.4s-0.8-0.7-1-1.3c-0.2-0.6-0.4-1.2-0.4-1.8c0-0.7,0.1-1.3,0.4-1.8c0.3-0.5,0.7-0.9,1.1-1.2
	c0.5-0.3,1-0.4,1.6-0.4c0.7,0,1.2,0.2,1.7,0.5s0.8,0.8,1,1.5l-0.9,0.2c-0.2-0.5-0.4-0.8-0.7-1.1c-0.3-0.2-0.7-0.3-1.1-0.3
	c-0.5,0-1,0.1-1.3,0.4c-0.3,0.2-0.6,0.6-0.7,1c-0.1,0.4-0.2,0.9-0.2,1.3c0,0.6,0.1,1.1,0.3,1.5s0.4,0.7,0.8,1
	c0.4,0.2,0.7,0.3,1.1,0.3c0.5,0,0.9-0.1,1.3-0.4S48.8,89.1,48.9,88.5z M50.2,90.9l2.6-6.8h1l2.8,6.8h-1l-0.8-2H52l-0.7,2H50.2z
	 M52.1,88.1h2.3l-0.7-1.9c-0.2-0.6-0.4-1-0.5-1.4c-0.1,0.4-0.2,0.9-0.4,1.3L52.1,88.1z M58.2,90.9v-6H56v-0.8h5.4v0.8h-2.2v6H58.2z
	 M61.8,87.6c0-1.1,0.3-2,0.9-2.6c0.6-0.6,1.4-1,2.3-1c0.6,0,1.2,0.1,1.7,0.4s0.9,0.7,1.1,1.2c0.3,0.5,0.4,1.1,0.4,1.8
	c0,0.7-0.1,1.3-0.4,1.8s-0.7,0.9-1.2,1.2c-0.4,0.4-1,0.6-1.6,0.6s-1.2-0.2-1.7-0.5s-0.9-0.7-1.1-1.3C61.9,88.7,61.8,88.2,61.8,87.6z
	 M62.7,87.6c0,0.8,0.2,1.5,0.7,1.9c0.4,0.5,1,0.7,1.6,0.7c0.7,0,1.2-0.2,1.7-0.7c0.4-0.5,0.7-1.1,0.7-2c0-0.6-0.1-1-0.3-1.4
	c-0.2-0.4-0.5-0.7-0.8-1c-0.4-0.2-0.8-0.3-1.2-0.3c-0.6,0-1.2,0.2-1.6,0.7C63,85.9,62.7,86.6,62.7,87.6z M69.4,90.9v-6.8h3
	c0.6,0,1.1,0.1,1.4,0.2s0.6,0.3,0.8,0.6s0.3,0.6,0.3,1c0,0.5-0.2,0.9-0.5,1.2c-0.3,0.3-0.8,0.5-1.4,0.6c0.2,0.1,0.4,0.2,0.5,0.3
	c0.3,0.2,0.5,0.5,0.7,0.9l1.2,1.8h-1.1l-0.9-1.4c-0.3-0.4-0.5-0.7-0.6-0.9c-0.2-0.2-0.3-0.4-0.5-0.5c-0.1-0.1-0.3-0.1-0.4-0.2
	c-0.1,0-0.3,0-0.5,0h-1v3h-1V90.9z M70.3,87.1h1.9c0.4,0,0.7,0,1-0.1c0.2-0.1,0.4-0.2,0.5-0.4c0.1-0.2,0.2-0.4,0.2-0.6
	c0-0.3-0.1-0.6-0.3-0.8c-0.2-0.2-0.6-0.3-1.1-0.3h-2.1L70.3,87.1L70.3,87.1z"/>
<path id="icon" fill="#FFFFFF" d="M59.5,25.9c0.7,1.9,1.2,5.1,1.2,7.4c0,6.1-1.7,11.3-8.3,15V75h11.3V25.9H59.5z M79,74.9H67.6V41.4
	H79V74.9z M48.1,75H36.7V55.6H48L48.1,75L48.1,75z M21.5,50c-0.6,0.6-0.6,1.6,0,2.2c0.6,0.6,1.6,0.6,2.2,0l6.7-6.7
	c1.3,1.1,2.8,2,4.3,2.6c2,0.8,4.2,1.3,6.5,1.3s4.5-0.5,6.5-1.3c2.1-0.9,4-2.1,5.5-3.7l0,0c1.5-1.6,2.8-3.4,3.7-5.5v-0.1
	c0.8-2,1.3-4.1,1.3-6.4c0-2.3-0.5-4.5-1.3-6.5c-0.9-2.1-2.1-4-3.7-5.5c-3.1-3.1-7.3-5-12-5c-2.3,0-4.5,0.4-6.5,1.3l0,0
	c-2.1,0.9-3.9,2.1-5.5,3.7l-0.1,0.1c-1.5,1.5-2.8,3.4-3.6,5.4V26c-0.8,2-1.3,4.2-1.3,6.4c0,2.3,0.5,4.5,1.3,6.5
	c0.7,1.6,1.6,3.1,2.6,4.4L21.5,50L21.5,50z M31.5,42.2c-1.3-1.3-2.3-2.8-3-4.5c-0.7-1.6-1-3.4-1-5.3c0-1.9,0.4-3.6,1-5.2v-0.1
	c0.7-1.7,1.7-3.2,2.9-4.4l0.1-0.1c1.3-1.3,2.8-2.3,4.5-3l0,0c1.6-0.7,3.4-1,5.3-1c3.8,0,7.3,1.6,9.8,4.1c1.3,1.3,2.3,2.8,3,4.5
	c0.7,1.6,1.1,3.4,1.1,5.3c0,1.9-0.4,3.6-1,5.2v0.1c-0.7,1.7-1.7,3.2-3,4.5l0,0c-1.3,1.3-2.8,2.3-4.5,3c-1.6,0.7-3.4,1.1-5.3,1.1
	c-1.9,0-3.7-0.4-5.3-1.1C34.3,44.5,32.8,43.5,31.5,42.2L31.5,42.2L31.5,42.2L31.5,42.2L31.5,42.2z M31.2,31.5c-0.5,0-0.9,0.4-0.9,1
	c0,1.4,0.3,2.9,0.8,4.2v0.1c0.5,1.3,1.3,2.5,2.4,3.5c1.1,1.1,2.3,1.8,3.6,2.4c1.4,0.6,2.8,0.8,4.2,0.8c0.5,0,0.9-0.4,0.9-0.9
	s-0.4-0.9-0.9-0.9c-1.2,0-2.4-0.2-3.5-0.7c-1.1-0.4-2.1-1.1-3-2s-1.5-1.9-2-2.9l0,0c-0.5-1.1-0.7-2.3-0.7-3.5
	C32.2,31.9,31.8,31.5,31.2,31.5L31.2,31.5L31.2,31.5z"/>
</svg>
