<?xml version="1.0" encoding="utf-8"?>
<!-- Generator: Adobe Illustrator 20.1.0, SVG Export Plug-In . SVG Version: 6.00 Build 0)  -->
<svg version="1.1" id="observable-path-b" xmlns="http://www.w3.org/2000/svg" xmlns:xlink="http://www.w3.org/1999/xlink" x="0px"
	 y="0px" width="1792px" height="1792px" viewBox="0 0 1792 1792" xml:space="preserve">
<path id="icon" fill="#00897b" d="M896 1629l640-349v-636l-640 233v752zm-64-865l698-254-698-254-698 254zm832-252v768q0 35-18 65t-49 47l-704 384q-28 16-61 16t-61-16l-704-384q-31-17-49-47t-18-65v-768q0-40 23-73t61-47l704-256q22-8 44-8t44 8l704 256q38 14 61 47t23 73z"/>
</svg>
