<?xml version="1.0" encoding="utf-8"?>
<!-- Generator: Adobe Illustrator 20.1.0, SVG Export Plug-In . SVG Version: 6.00 Build 0)  -->
<svg version="1.1" id="relationshipb" xmlns="http://www.w3.org/2000/svg" xmlns:xlink="http://www.w3.org/1999/xlink" x="0px"
	 y="0px" width="62.1px" height="57.8px" viewBox="0 0 62.1 57.8" enable-background="new 0 0 62.1 57.8" xml:space="preserve">
<path id="icon" fill="#006600" d="M54.9,22.2c4,0,7.2-3.2,7.2-7.2s-3.2-7.2-7.2-7.2S47.7,11,47.7,15c0,1.1,0.2,2.1,0.7,3l-4.3,3.2
	c-0.3-0.4-0.6-0.8-1-1.1v0c-2.3-2.2-5.4-3.6-8.8-3.6c-3.4,0-6.4,1.2-8.7,3.4L25.5,20L17,13.3c0.7-1.3,1-2.6,1-4.2
	c0-2.5-1-4.8-2.7-6.4C13.8,1,11.5,0,9,0C6.6,0,4.3,1,2.7,2.7C1,4.3,0,6.5,0,9c0,2.5,1,4.8,2.7,6.4c1.6,1.6,3.9,2.6,6.4,2.6
	c2.4,0,4.3-0.7,5.9-2.3l8.5,6.7c-1.2,1.9-1.6,4-1.6,6.4c0,2.4,0.4,4.4,1.6,6.3l-8.5,6.7c-1.6-1.5-3.5-2.1-5.9-2.1
	c-2.5,0-4.8,1-6.4,2.6C1,44.1,0,46.3,0,48.8s1,4.8,2.7,6.4c1.6,1.6,3.9,2.6,6.4,2.6c2.5,0,4.8-1,6.4-2.6c1.6-1.6,2.7-3.9,2.7-6.4
	c0-1.6-0.3-3-1-4.3l8.5-6.7l0.1,0.1l0.1,0.1c2.3,2.2,5.2,3.3,8.6,3.3c2.7,0,5.1-0.8,7.2-2.3l3.7,4c-0.7,1-1.1,2.3-1.1,3.7
	c0,3.6,2.9,6.6,6.6,6.6c3.6,0,6.6-2.9,6.6-6.6s-2.9-6.6-6.6-6.6c-1.2,0-2.2,0.3-3.2,0.8l-3.7-4c1.9-2.2,3.1-5,3.1-8.1
	c0-1.8-0.4-3.5-1.1-5l4.5-3.4C51.5,21.6,53.1,22.2,54.9,22.2z"/>
</svg>
