<?xml version="1.0" encoding="utf-8"?>
<!-- Generator: Adobe Illustrator 20.1.0, SVG Export Plug-In . SVG Version: 6.00 Build 0)  -->
<svg version="1.1" id="relationship" xmlns="http://www.w3.org/2000/svg" xmlns:xlink="http://www.w3.org/1999/xlink" x="0px"
	 y="0px" width="100px" height="100px" viewBox="0 0 100 100" enable-background="new 0 0 100 100" xml:space="preserve">
<path id="base" fill="#006600" d="M88,100H12c-6.6,0-12-5.4-12-12V12C0,5.4,5.4,0,12,0h76c6.6,0,12,5.4,12,12v76
	C100,94.6,94.6,100,88,100z"/>
<path id="text" fill="#FFFFFF" d="M16.6,90.9v-6.8h3c0.6,0,1.1,0.1,1.4,0.2s0.6,0.3,0.8,0.6c0.2,0.3,0.3,0.6,0.3,1
	c0,0.5-0.2,0.9-0.5,1.2c-0.3,0.3-0.8,0.5-1.4,0.6c0.2,0.1,0.4,0.2,0.5,0.3c0.3,0.2,0.5,0.5,0.7,0.9l1.2,1.8h-1.1l-0.9-1.4
	c-0.3-0.4-0.5-0.7-0.6-0.9c-0.2-0.2-0.3-0.4-0.5-0.5s-0.3-0.1-0.4-0.2c-0.1,0-0.3,0-0.5,0h-1v3h-1V90.9z M17.5,87.1h1.9
	c0.4,0,0.7,0,1-0.1c0.2-0.1,0.4-0.2,0.5-0.4c0.1-0.2,0.2-0.4,0.2-0.6c0-0.3-0.1-0.6-0.3-0.8c-0.2-0.2-0.6-0.3-1.1-0.3h-2.1v2.2H17.5
	z M23.4,90.9v-6.8h4.9v0.8h-4V87H28v0.8h-3.7v2.3h4.1v0.8C28.4,90.9,23.4,90.9,23.4,90.9z M29.6,90.9v-6.8h0.9v6h3.3v0.8H29.6z
	 M34.2,90.9l2.6-6.8h1l2.8,6.8h-1l-0.8-2H36l-0.7,2H34.2z M36.1,88.1h2.3l-0.7-1.9c-0.2-0.6-0.4-1-0.5-1.4c-0.1,0.4-0.2,0.9-0.4,1.3
	L36.1,88.1z M42.2,90.9v-6H40v-0.8h5.4v0.8h-2.2v6H42.2z M46.4,90.9v-6.8h0.9v6.8H46.4z M48.6,87.6c0-1.1,0.3-2,0.9-2.6
	c0.6-0.6,1.4-1,2.3-1c0.6,0,1.2,0.1,1.7,0.4s0.9,0.7,1.1,1.2c0.3,0.5,0.4,1.1,0.4,1.8c0,0.7-0.1,1.3-0.4,1.8s-0.7,0.9-1.2,1.2
	c-0.4,0.4-1,0.6-1.6,0.6c-0.6,0-1.2-0.2-1.7-0.5s-0.9-0.7-1.1-1.3C48.7,88.7,48.6,88.2,48.6,87.6z M49.5,87.6c0,0.8,0.2,1.5,0.7,1.9
	c0.4,0.5,1,0.7,1.6,0.7c0.7,0,1.2-0.2,1.7-0.7c0.4-0.5,0.7-1.1,0.7-2c0-0.6-0.1-1-0.3-1.4s-0.5-0.7-0.8-1c-0.4-0.2-0.8-0.3-1.2-0.3
	c-0.6,0-1.2,0.2-1.6,0.7C49.8,85.9,49.5,86.6,49.5,87.6z M56.2,90.9v-6.8h0.9l3.5,5.3v-5.3h0.9v6.8h-0.9l-3.5-5.3v5.3H56.2z
	 M62.7,88.7l0.8-0.1c0,0.3,0.1,0.6,0.3,0.8c0.1,0.2,0.4,0.4,0.7,0.5s0.7,0.2,1,0.2s0.6-0.1,0.9-0.2s0.5-0.2,0.6-0.4
	c0.1-0.2,0.2-0.4,0.2-0.6s-0.1-0.4-0.2-0.6s-0.3-0.3-0.6-0.4c-0.2-0.1-0.6-0.2-1.2-0.3c-0.6-0.1-1.1-0.3-1.3-0.4
	c-0.3-0.2-0.6-0.4-0.7-0.6C63,86.3,63,86.1,63,85.8s0.1-0.7,0.3-1s0.5-0.5,0.8-0.7s0.8-0.2,1.2-0.2c0.5,0,0.9,0.1,1.3,0.2
	c0.4,0.2,0.7,0.4,0.9,0.7c0.2,0.3,0.3,0.7,0.3,1.1L66.9,86c0-0.4-0.2-0.7-0.5-1c-0.3-0.2-0.7-0.3-1.2-0.3S64.3,84.8,64,85
	c-0.2,0.2-0.4,0.4-0.4,0.7c0,0.2,0.1,0.4,0.3,0.6s0.6,0.3,1.3,0.5s1.2,0.3,1.5,0.4c0.4,0.2,0.7,0.4,0.9,0.7c0.2,0.3,0.3,0.6,0.3,1
	s-0.1,0.7-0.3,1c-0.2,0.3-0.5,0.6-0.9,0.7c-0.4,0.2-0.8,0.3-1.3,0.3c-0.6,0-1.1-0.1-1.5-0.3c-0.4-0.2-0.7-0.4-1-0.8
	C62.9,89.6,62.8,89.2,62.7,88.7z M69.4,90.9v-6.8h0.9v2.8h3.5v-2.8h0.9v6.8h-0.9v-3.2h-3.5v3.2H69.4z M76.3,90.9v-6.8h0.9v6.8H76.3z
	 M78.8,90.9v-6.8h2.5c0.4,0,0.8,0,1,0.1c0.3,0.1,0.6,0.2,0.8,0.3c0.2,0.2,0.4,0.4,0.5,0.7c0.1,0.3,0.2,0.6,0.2,0.9
	c0,0.6-0.2,1.1-0.5,1.5c-0.4,0.4-1,0.6-2,0.6h-1.7v2.7C79.6,90.9,78.8,90.9,78.8,90.9z M79.7,87.3h1.7c0.6,0,1-0.1,1.2-0.3
	c0.2-0.2,0.4-0.5,0.4-0.9c0-0.3-0.1-0.5-0.2-0.7s-0.3-0.3-0.6-0.4c-0.2,0-0.4-0.1-0.8-0.1h-1.7V87.3z"/>
<path id="icon" fill="#FFFFFF" d="M72.5,38.9c3.8,0,6.8-3.1,6.8-6.8c0-3.8-3.1-6.8-6.8-6.8s-6.8,3.1-6.8,6.8c0,1,0.2,2,0.6,2.8l-4,3
	c-0.3-0.4-0.6-0.7-0.9-1.1l0,0c-2.1-2.1-5.1-3.4-8.3-3.4s-6,1.1-8.2,3.2l-0.1,0.1l-8-6.3c0.7-1.2,1-2.5,1-4c0-2.4-1-4.5-2.5-6
	s-3.7-2.5-6-2.5s-4.5,1-6,2.5s-2.5,3.7-2.5,6s1,4.5,2.5,6s3.7,2.5,6,2.5s4-0.7,5.5-2.1l8,6.3c-1.1,1.8-1.5,3.8-1.5,6.1
	s0.4,4.1,1.5,6l-8,6.3c-1.5-1.4-3.3-2-5.5-2c-2.3,0-4.5,1-6,2.5c-1.5,1.6-2.5,3.7-2.5,6c0,2.3,1,4.5,2.5,6s3.7,2.5,6,2.5
	c2.4,0,4.5-1,6-2.5s2.5-3.7,2.5-6c0-1.5-0.3-2.8-1-4l8-6.3l0.1,0.1l0.1,0.1c2.1,2,4.9,3.2,8.1,3.2c2.5,0,4.8-0.8,6.8-2.2l3.5,3.8
	c-0.7,1-1.1,2.2-1.1,3.5c0,3.4,2.8,6.2,6.2,6.2s6.2-2.8,6.2-6.2c0-3.4-2.8-6.2-6.2-6.2c-1.1,0-2.1,0.3-3,0.8L62,53
	c1.8-2.1,2.9-4.7,2.9-7.7c0-1.7-0.4-3.3-1-4.8l4.3-3.2C69.3,38.3,70.8,38.9,72.5,38.9z"/>
</svg>
