<?xml version="1.0" encoding="utf-8"?>
<!-- Generator: Adobe Illustrator 20.1.0, SVG Export Plug-In . SVG Version: 6.00 Build 0)  -->
<svg version="1.1" id="reportb" xmlns="http://www.w3.org/2000/svg" xmlns:xlink="http://www.w3.org/1999/xlink" x="0px" y="0px"
	 width="51.5px" height="58.9px" viewBox="0 0 51.5 58.9" enable-background="new 0 0 51.5 58.9" xml:space="preserve">
<path id="icon" fill="#576084" d="M50.8,17L34.5,0.7c-0.4-0.4-1-0.7-1.6-0.7H6.1C4.4,0,2.9,0.7,1.8,1.8C0.7,2.9,0,4.4,0,6.1v46.7
	c0,1.7,0.7,3.2,1.8,4.3v0l0,0c1.1,1.1,2.6,1.8,4.3,1.8h39.4c1.6,0,3.1-0.7,4.2-1.7l0,0l0,0c1.1-1.1,1.8-2.6,1.8-4.3V18.7v0
	C51.5,18.1,51.3,17.5,50.8,17z M17.3,23.9L24,35.1H10.7C11.2,30.4,13.7,26.4,17.3,23.9z M25.8,51.6c-7.7,0-14.1-5.8-15.1-13.3h18.7
	L20,22.3c1.8-0.7,3.7-1.1,5.7-1.1C34.2,21.2,41,28,41,36.4C41,44.8,34.2,51.6,25.8,51.6z M36.7,17.3c-0.7,0-1.3-0.3-1.7-0.7
	l-0.1-0.1c-0.4-0.4-0.6-1-0.6-1.7v-11l13.5,13.5H36.7z"/>
</svg>
