<?xml version="1.0" encoding="utf-8"?>
<!-- Generator: Adobe Illustrator 20.1.0, SVG Export Plug-In . SVG Version: 6.00 Build 0)  -->
<svg version="1.1" id="report" xmlns="http://www.w3.org/2000/svg" xmlns:xlink="http://www.w3.org/1999/xlink" x="0px" y="0px"
	 width="100px" height="100px" viewBox="0 0 100 100" enable-background="new 0 0 100 100" xml:space="preserve">
<path id="base" fill="#576084" d="M88,100H12c-6.6,0-12-5.4-12-12V12C0,5.4,5.4,0,12,0h76c6.6,0,12,5.4,12,12v76
	C100,94.6,94.6,100,88,100z"/>
<path id="text" fill="#FFFFFF" d="M31.3,90.9v-6.8h3c0.6,0,1.1,0.1,1.4,0.2c0.3,0.1,0.6,0.3,0.8,0.6c0.2,0.3,0.3,0.6,0.3,1
	c0,0.5-0.2,0.9-0.5,1.2c-0.3,0.3-0.8,0.5-1.4,0.6c0.2,0.1,0.4,0.2,0.5,0.3c0.3,0.2,0.5,0.5,0.7,0.9l1.2,1.8h-1.1l-0.9-1.4
	c-0.3-0.4-0.5-0.7-0.6-0.9c-0.2-0.2-0.3-0.4-0.5-0.5s-0.3-0.1-0.4-0.2c-0.1,0-0.3,0-0.5,0h-1v3h-1V90.9z M32.1,87.1H34
	c0.4,0,0.7,0,1-0.1c0.2-0.1,0.4-0.2,0.5-0.4c0.1-0.2,0.2-0.4,0.2-0.6c0-0.3-0.1-0.6-0.3-0.8c-0.2-0.2-0.6-0.3-1.1-0.3h-2.1v2.2H32.1
	z M38.1,90.9v-6.8H43v0.8h-4V87h3.7v0.8H39v2.3h4.1v0.8C43.1,90.9,38.1,90.9,38.1,90.9z M44.3,90.9v-6.8h2.5c0.4,0,0.8,0,1,0.1
	c0.3,0.1,0.6,0.2,0.8,0.3c0.2,0.2,0.4,0.4,0.5,0.7c0.1,0.3,0.2,0.6,0.2,0.9c0,0.6-0.2,1.1-0.5,1.5c-0.4,0.4-1,0.6-2,0.6h-1.7v2.7
	C45.1,90.9,44.3,90.9,44.3,90.9z M45.2,87.3H47c0.6,0,1-0.1,1.2-0.3s0.4-0.5,0.4-0.9c0-0.3-0.1-0.5-0.2-0.7C48.2,85.2,48,85,47.8,85
	s-0.4-0.1-0.8-0.1h-1.7L45.2,87.3L45.2,87.3z M50.4,87.6c0-1.1,0.3-2,0.9-2.6c0.6-0.6,1.4-1,2.3-1c0.6,0,1.2,0.1,1.7,0.4
	s0.9,0.7,1.1,1.2c0.3,0.5,0.4,1.1,0.4,1.8c0,0.7-0.1,1.3-0.4,1.8s-0.7,0.9-1.2,1.2c-0.5,0.3-1.1,0.4-1.6,0.4c-0.6,0-1.2-0.2-1.7-0.5
	S51,89.6,50.8,89C50.5,88.7,50.4,88.2,50.4,87.6z M51.3,87.6c0,0.8,0.2,1.5,0.7,1.9c0.4,0.5,1,0.7,1.6,0.7c0.7,0,1.2-0.2,1.7-0.7
	c0.4-0.5,0.7-1.1,0.7-2c0-0.6-0.1-1-0.3-1.4s-0.5-0.7-0.8-1c-0.4-0.2-0.8-0.3-1.2-0.3c-0.6,0-1.2,0.2-1.6,0.7
	C51.5,85.9,51.3,86.6,51.3,87.6z M58,90.9v-6.8h3c0.6,0,1.1,0.1,1.4,0.2c0.3,0.1,0.6,0.3,0.8,0.6c0.2,0.3,0.3,0.6,0.3,1
	c0,0.5-0.2,0.9-0.5,1.2c-0.3,0.3-0.8,0.5-1.4,0.6c0.2,0.1,0.4,0.2,0.5,0.3c0.3,0.2,0.5,0.5,0.7,0.9l1.2,1.8h-1.1L62,89.3
	c-0.3-0.4-0.5-0.7-0.6-0.9c-0.2-0.2-0.3-0.4-0.5-0.5c-0.1-0.1-0.3-0.1-0.4-0.2c-0.1,0-0.3,0-0.5,0h-1v3h-1V90.9z M58.9,87.1h1.9
	c0.4,0,0.7,0,1-0.1c0.2-0.1,0.4-0.2,0.5-0.4c0.1-0.2,0.2-0.4,0.2-0.6c0-0.3-0.1-0.6-0.3-0.8c-0.2-0.2-0.6-0.3-1.1-0.3H59v2.2H58.9z
	 M66.3,90.9v-6h-2.2v-0.8h5.4v0.8h-2.2v6H66.3z"/>
<path id="icon" fill="#FFFFFF" d="M73.7,33.8L58.2,18.4c-0.4-0.4-0.9-0.6-1.5-0.6H31.4c-1.6,0-3,0.7-4.1,1.7c-1,1-1.7,2.5-1.7,4
	v44.1c0,1.6,0.6,3,1.7,4.1l0,0l0,0c1,1,2.5,1.7,4,1.7h37.1c1.5,0,3-0.6,4-1.7l0,0l0,0c1-1.1,1.7-2.5,1.7-4V35.4l0,0
	C74.3,34.8,74.1,34.3,73.7,33.8z M42.1,40.2l6.3,10.6H35.8C36.2,46.4,38.6,42.6,42.1,40.2z M50,66.5c-7.3,0-13.3-5.5-14.2-12.5h17.6
	l-8.8-15.1c1.7-0.7,3.5-1.1,5.4-1.1c7.9,0,14.4,6.4,14.4,14.4C64.4,60,57.9,66.5,50,66.5z M60.3,34c-0.7,0-1.2-0.3-1.6-0.7l-0.1-0.1
	c-0.4-0.4-0.6-1-0.6-1.6V21.4L70.7,34H60.3z"/>
</svg>
