<?xml version="1.0" encoding="utf-8"?>
<!-- Generator: Adobe Illustrator 20.1.0, SVG Export Plug-In . SVG Version: 6.00 Build 0)  -->
<svg version="1.1" id="threatactorb" xmlns="http://www.w3.org/2000/svg" xmlns:xlink="http://www.w3.org/1999/xlink" x="0px"
	 y="0px" width="54.9px" height="62.8px" viewBox="0 0 54.9 62.8" enable-background="new 0 0 54.9 62.8" xml:space="preserve">
<path id="icon" fill="#C1272D" d="M4.8,14.2c0-0.5,10.3-1.6,10.3-1.6s6.3-12.1,8.8-12.6c1.8-0.4,3.5,1.1,4,1c0.8-0.1,2.4-1.7,4-0.6
	c1.6,1.1,6.7,12.3,6.7,12.3s10.6,0.8,10.3,1.4S32.4,24.6,27.4,25S4.8,14.7,4.8,14.2z M46.7,40.2c-2-1.4-6.7-2.3-6.7-2.3l8.4-6.8
	L40,22.8l-0.1,0.2C39.3,30,36.5,42,27.2,42c-9.6,0-11.8-12.1-12.8-19.2v0L6.3,31l8.5,6.9c0,0-4.6,1-6.7,2.3C5.3,42.2,0,53,0,56.5
	c0,1.8,2,6.2,6.8,6.3c0.8,0,40.7,0,41.5,0c4.8-0.1,6.5-4.5,6.5-6.4C54.9,52.9,49.6,42.2,46.7,40.2z"/>
</svg>
