<?xml version="1.0" encoding="utf-8"?>
<!-- Generator: Adobe Illustrator 20.1.0, SVG Export Plug-In . SVG Version: 6.00 Build 0)  -->
<svg version="1.1" id="threatactor" xmlns="http://www.w3.org/2000/svg" xmlns:xlink="http://www.w3.org/1999/xlink" x="0px"
	 y="0px" width="100px" height="100px" viewBox="0 0 100 100" enable-background="new 0 0 100 100" xml:space="preserve">
<path id="base" fill="#C1272D" d="M88,100H12c-6.6,0-12-5.4-12-12V12C0,5.4,5.4,0,12,0h76c6.6,0,12,5.4,12,12v76
	C100,94.6,94.6,100,88,100z"/>
<path id="text" fill="#FFFFFF" d="M16.5,91.2v-6h-2.2v-0.8h5.4v0.8h-2.2v6H16.5z M20.6,91.2v-6.8h0.9v2.8H25v-2.8h0.9v6.8H25V88
	h-3.5v3.2H20.6z M27.4,91.2v-6.8h3c0.6,0,1.1,0.1,1.4,0.2s0.6,0.3,0.8,0.6c0.2,0.3,0.3,0.6,0.3,1c0,0.5-0.2,0.9-0.5,1.2
	c-0.3,0.3-0.8,0.5-1.4,0.6c0.2,0.1,0.4,0.2,0.5,0.3c0.3,0.2,0.5,0.5,0.7,0.9l1.2,1.8h-1.1l-0.9-1.4c-0.3-0.4-0.5-0.7-0.6-0.9
	s-0.3-0.4-0.5-0.5c-0.1-0.1-0.3-0.1-0.4-0.2c-0.1,0-0.3,0-0.5,0h-1v3h-1V91.2z M28.3,87.4h1.9c0.4,0,0.7,0,1-0.1
	c0.2-0.1,0.4-0.2,0.5-0.4c0.1-0.2,0.2-0.4,0.2-0.6c0-0.3-0.1-0.6-0.3-0.8c-0.2-0.2-0.6-0.3-1.1-0.3h-2.1v2.2H28.3z M34.2,91.2v-6.8
	h4.9v0.8h-4v2.1h3.7v0.8h-3.7v2.3h4.1v0.8C39.2,91.2,34.2,91.2,34.2,91.2z M39.8,91.2l2.6-6.8h1l2.8,6.8h-1l-0.8-2h-2.8l-0.7,2H39.8
	z M41.7,88.4H44l-0.7-1.9c-0.2-0.6-0.4-1-0.5-1.4c-0.1,0.4-0.2,0.9-0.4,1.3L41.7,88.4z M47.8,91.2v-6h-2.2v-0.8H51v0.8h-2.2v6H47.8z
	 M53,91.2l2.6-6.8h1l2.8,6.8h-1l-0.8-2h-2.8l-0.7,2H53z M55,88.4h2.3l-0.7-1.9c-0.2-0.6-0.4-1-0.5-1.4c-0.1,0.4-0.2,0.9-0.4,1.3
	L55,88.4z M64.9,88.8l0.9,0.2c-0.2,0.7-0.5,1.3-1,1.7c-0.5,0.4-1.1,0.6-1.8,0.6s-1.3-0.1-1.8-0.4s-0.8-0.7-1-1.3
	c-0.2-0.6-0.4-1.2-0.4-1.8c0-0.7,0.1-1.3,0.4-1.8c0.3-0.5,0.7-0.9,1.1-1.2c0.5-0.3,1-0.4,1.6-0.4c0.7,0,1.2,0.2,1.7,0.5
	s0.8,0.8,1,1.5l-0.9,0.2c-0.2-0.5-0.4-0.8-0.7-1.1c-0.3-0.2-0.7-0.3-1.1-0.3c-0.5,0-1,0.1-1.3,0.4c-0.3,0.2-0.6,0.6-0.7,1
	c-0.1,0.4-0.2,0.9-0.2,1.3c0,0.6,0.1,1.1,0.3,1.5s0.4,0.7,0.8,1c0.4,0.2,0.7,0.3,1.1,0.3c0.5,0,0.9-0.1,1.3-0.4
	C64.5,89.8,64.8,89.4,64.9,88.8z M68.6,91.2v-6h-2.2v-0.8h5.4v0.8h-2.2v6H68.6z M72.2,87.9c0-1.1,0.3-2,0.9-2.6s1.4-1,2.3-1
	c0.6,0,1.2,0.1,1.7,0.4s0.9,0.7,1.1,1.2c0.3,0.5,0.4,1.1,0.4,1.8c0,0.7-0.1,1.3-0.4,1.8s-0.7,0.9-1.2,1.2c-0.5,0.3-1.1,0.4-1.6,0.4
	c-0.6,0-1.2-0.2-1.7-0.5s-0.9-0.7-1.1-1.3C72.3,89,72.2,88.5,72.2,87.9z M73.1,87.9c0,0.8,0.2,1.5,0.7,1.9c0.4,0.5,1,0.7,1.6,0.7
	c0.7,0,1.2-0.2,1.7-0.7c0.4-0.5,0.7-1.1,0.7-2c0-0.6-0.1-1-0.3-1.4c-0.2-0.4-0.5-0.7-0.8-1c-0.4-0.2-0.8-0.3-1.2-0.3
	c-0.6,0-1.2,0.2-1.6,0.7C73.4,86.2,73.1,86.9,73.1,87.9z M79.8,91.2v-6.8h3c0.6,0,1.1,0.1,1.4,0.2s0.6,0.3,0.8,0.6
	c0.2,0.3,0.3,0.6,0.3,1c0,0.5-0.2,0.9-0.5,1.2c-0.3,0.3-0.8,0.5-1.4,0.6c0.2,0.1,0.4,0.2,0.5,0.3c0.3,0.2,0.5,0.5,0.7,0.9l1.2,1.8
	h-1.1l-0.9-1.4c-0.3-0.4-0.5-0.7-0.6-0.9s-0.3-0.4-0.5-0.5c-0.1-0.1-0.3-0.1-0.4-0.2c-0.1,0-0.3,0-0.5,0h-1v3h-1V91.2z M80.7,87.4
	h1.9c0.4,0,0.7,0,1-0.1c0.2-0.1,0.4-0.2,0.5-0.4c0.1-0.2,0.2-0.4,0.2-0.6c0-0.3-0.1-0.6-0.3-0.8c-0.2-0.2-0.6-0.3-1.1-0.3h-2.1
	L80.7,87.4L80.7,87.4z"/>
<path id="icon" fill="#FFFFFF" d="M28.6,29.2c0-0.4,9.7-1.5,9.7-1.5s5.9-11.4,8.3-11.9c1.7-0.4,3.3,1,3.8,1c0.7-0.1,2.3-1.6,3.8-0.5
	c1.5,1,6.4,11.6,6.4,11.6s10,0.7,9.7,1.3C70,29.8,54.8,39,50,39.3C45.2,39.6,28.6,29.6,28.6,29.2z M68.2,53.7
	c-1.9-1.3-6.3-2.2-6.3-2.2l7.9-6.4l-7.9-7.8l-0.1,0.1c-0.6,6.7-3.3,18-12,18c-9.1,0-11.2-11.4-12.1-18.2l0,0L30,45l8,6.5
	c0,0-4.4,0.9-6.3,2.2C29,55.5,24,65.7,24.1,69c0,1.7,1.9,5.9,6.4,5.9c0.8,0,38.4,0,39.2,0c4.5-0.1,6.2-4.3,6.2-6
	C75.9,65.6,70.9,55.5,68.2,53.7z"/>
</svg>
