<?xml version="1.0" encoding="utf-8"?>
<!-- Generator: Adobe Illustrator 20.1.0, SVG Export Plug-In . SVG Version: 6.00 Build 0)  -->
<svg version="1.1" id="threatactor" xmlns="http://www.w3.org/2000/svg" xmlns:xlink="http://www.w3.org/1999/xlink" x="0px"
	 y="0px" width="100px" height="100px" viewBox="0 0 100 100" enable-background="new 0 0 100 100" xml:space="preserve">
<path id="icon" fill="#FAFAFA" d="M28.6,29.2c0-0.4,9.7-1.5,9.7-1.5s5.9-11.4,8.3-11.9c1.7-0.4,3.3,1,3.8,1c0.7-0.1,2.3-1.6,3.8-0.5
	c1.5,1,6.4,11.6,6.4,11.6s10,0.7,9.7,1.3C70,29.8,54.8,39,50,39.3C45.2,39.6,28.6,29.6,28.6,29.2z M68.2,53.7
	c-1.9-1.3-6.3-2.2-6.3-2.2l7.9-6.4l-7.9-7.8l-0.1,0.1c-0.6,6.7-3.3,18-12,18c-9.1,0-11.2-11.4-12.1-18.2l0,0L30,45l8,6.5
	c0,0-4.4,0.9-6.3,2.2C29,55.5,24,65.7,24.1,69c0,1.7,1.9,5.9,6.4,5.9c0.8,0,38.4,0,39.2,0c4.5-0.1,6.2-4.3,6.2-6
	C75.9,65.6,70.9,55.5,68.2,53.7z"/>
</svg>
