<?xml version="1.0" encoding="utf-8"?>
<!-- Generator: Adobe Illustrator 20.1.0, SVG Export Plug-In . SVG Version: 6.00 Build 0)  -->
<svg version="1.1" id="tool" xmlns="http://www.w3.org/2000/svg" xmlns:xlink="http://www.w3.org/1999/xlink" x="0px" y="0px"
	 width="100px" height="100px" viewBox="0 0 100 100" enable-background="new 0 0 100 100" xml:space="preserve">
<path id="base" fill="#680505" d="M88,100H12c-6.6,0-12-5.4-12-12V12C0,5.4,5.4,0,12,0h76c6.6,0,12,5.4,12,12v76
	C100,94.6,94.6,100,88,100z"/>
<path id="text" fill="#FFFFFF" d="M39.9,90.9v-6h-2.2v-0.8H43v0.8h-2.2v6H39.9z M43.5,87.6c0-1.1,0.3-2,0.9-2.6c0.6-0.6,1.4-1,2.3-1
	c0.6,0,1.2,0.1,1.7,0.4c0.5,0.3,0.9,0.7,1.1,1.2c0.3,0.5,0.4,1.1,0.4,1.8c0,0.7-0.1,1.3-0.4,1.8c-0.3,0.5-0.7,0.9-1.2,1.2
	c-0.5,0.3-1.1,0.4-1.6,0.4c-0.6,0-1.2-0.2-1.7-0.5s-0.9-0.7-1.1-1.3C43.6,88.7,43.5,88.2,43.5,87.6z M44.4,87.6
	c0,0.8,0.2,1.5,0.7,1.9c0.4,0.5,1,0.7,1.6,0.7c0.7,0,1.2-0.2,1.7-0.7c0.4-0.5,0.7-1.1,0.7-2c0-0.6-0.1-1-0.3-1.4
	c-0.2-0.4-0.5-0.7-0.8-1c-0.4-0.2-0.8-0.3-1.2-0.3c-0.6,0-1.2,0.2-1.6,0.7C44.6,85.9,44.4,86.6,44.4,87.6z M50.8,87.6
	c0-1.1,0.3-2,0.9-2.6c0.6-0.6,1.4-1,2.3-1c0.6,0,1.2,0.1,1.7,0.4c0.5,0.3,0.9,0.7,1.1,1.2c0.3,0.5,0.4,1.1,0.4,1.8
	c0,0.7-0.1,1.3-0.4,1.8s-0.7,0.9-1.2,1.2C55.2,90.8,54.6,91,54,91c-0.6,0-1.2-0.2-1.7-0.5c-0.5-0.3-0.9-0.7-1.1-1.3
	C50.9,88.7,50.8,88.2,50.8,87.6z M51.7,87.6c0,0.8,0.2,1.5,0.7,1.9c0.4,0.5,1,0.7,1.6,0.7c0.7,0,1.2-0.2,1.7-0.7
	c0.4-0.5,0.7-1.1,0.7-2c0-0.6-0.1-1-0.3-1.4c-0.2-0.4-0.5-0.7-0.8-1c-0.4-0.2-0.8-0.3-1.2-0.3c-0.6,0-1.2,0.2-1.6,0.7
	C52,85.9,51.7,86.6,51.7,87.6z M58.4,90.9v-6.8h0.9v6h3.3v0.8H58.4z"/>
<path id="icon" fill="#FFFFFF" d="M75.4,37.8h-8.9l-3.3-5.7l3.3-5.7h8.9c0.3,0,0.5-0.1,0.8-0.2c0.6-0.4,0.8-1.3,0.4-1.9
	c-0.2-0.3-0.5-0.7-0.8-1l0,0v0c-0.3-0.4-0.6-0.7-1-1.1c-5.5-5.5-14.5-5.5-20,0c-1.7,1.7-2.9,3.8-3.6,6c-0.6,2-0.8,4.2-0.4,6.2
	L25.7,59.4c-3.2,3.2-3.2,8.5,0,11.7c3.2,3.2,8.5,3.2,11.8,0l25.1-25.1c2.1,0.3,4.2,0.2,6.3-0.4c2.2-0.7,4.3-1.9,6-3.6
	c0.7-0.7,1.2-1.4,1.7-2.1l0,0v0c0.1-0.2,0.2-0.5,0.2-0.8C76.8,38.4,76.2,37.8,75.4,37.8z M35,68.1c-1.7,1.7-4.6,1.7-6.3,0
	c-1.7-1.8-1.7-4.6,0-6.4c1.7-1.7,4.6-1.7,6.4,0C36.8,63.5,36.8,66.4,35,68.1z"/>
</svg>
