<?xml version="1.0" encoding="utf-8"?>
<!-- Generator: Adobe Illustrator 20.1.0, SVG Export Plug-In . SVG Version: 6.00 Build 0)  -->
<svg version="1.1" id="toolb" xmlns="http://www.w3.org/2000/svg" xmlns:xlink="http://www.w3.org/1999/xlink" x="0px" y="0px"
	 width="56.7px" height="59px" viewBox="0 0 56.7 59" enable-background="new 0 0 56.7 59" xml:space="preserve">
<path id="icon" fill="#680505" d="M55.3,21.1h-9.5L42.3,15l3.5-6h9.5c0.3,0,0.6-0.1,0.8-0.3c0.6-0.4,0.8-1.3,0.4-2.1
	c-0.2-0.3-0.5-0.7-0.8-1.1l0,0v0c-0.3-0.4-0.7-0.8-1-1.1c-5.8-5.8-15.4-5.8-21.2,0c-1.8,1.8-3.1,4.1-3.8,6.4
	c-0.6,2.1-0.8,4.4-0.4,6.6L2.6,44c-3.4,3.4-3.4,9,0,12.4c3.4,3.4,9,3.4,12.5,0l26.6-26.6c2.2,0.4,4.5,0.2,6.6-0.4
	c2.3-0.7,4.5-2,6.4-3.8c0.7-0.7,1.3-1.5,1.8-2.2l0,0v0c0.2-0.2,0.2-0.5,0.2-0.8C56.7,21.7,56.1,21.1,55.3,21.1z M12.5,53.2
	c-1.8,1.8-4.9,1.8-6.7,0c-1.8-1.9-1.8-4.9,0-6.7c1.8-1.8,4.9-1.8,6.8,0C14.4,48.3,14.4,51.4,12.5,53.2z"/>
</svg>
