<svg xmlns="http://www.w3.org/2000/svg" viewBox="0 0 611.83 654.69"><defs><style>.cls-1{fill:#d9e6f1;}.cls-1,.cls-8{fill-rule:evenodd;}.cls-2{fill:#660e0e;}.cls-3{fill:#299dd8;}.cls-4{fill:#bdb231;}.cls-5{fill:#3bb44a;}.cls-6{fill:#1f4075;}.cls-7{fill:#252d3c;}.cls-8{fill:#18375e;}.cls-9{fill:#fff;}.cls-10{fill:#29a9e1;}.cls-11{fill:#242d3b;}</style></defs><title>unfetter-shield-v4</title><g id="Layer_2" data-name="Layer 2"><g id="export_me_" data-name="export me!"><polygon class="cls-1" points="610.66 177.73 608.01 151.02 603.61 124.01 599.19 102.82 593.99 98.63 571.05 82.25 546.9 66.37 521.42 52.45 494.97 39.94 468.38 29.18 441.97 20.21 414.54 12.92 387.31 7.12 359.94 3.08 332.45 0.8 306.68 0.04 306.68 0 305.92 0.02 305.15 0 305.15 0.04 279.38 0.8 251.89 3.08 224.52 7.12 197.29 12.92 169.86 20.21 143.45 29.18 116.86 39.94 90.41 52.45 64.93 66.37 40.78 82.25 17.84 98.63 12.64 102.82 8.22 124.01 3.82 151.02 1.17 177.73 0 205.04 0.29 232.63 2.35 260.23 6.16 287.83 11.45 315.72 18.49 342.73 27.3 370.03 37.86 397.34 49.9 423.76 63.99 449.01 78.66 473.08 94.51 495.98 112.12 518 130.91 538.55 149.99 557.93 170.53 576.13 192.25 593.16 214.56 608.72 237.75 623.11 261.52 635.73 286.18 647.18 304.97 654.69 306.86 654.69 325.65 647.18 350.31 635.73 374.08 623.11 397.27 608.72 419.58 593.16 441.3 576.13 461.84 557.93 480.92 538.55 499.71 518 517.32 495.98 533.17 473.08 547.84 449.01 561.93 423.76 573.97 397.34 584.53 370.03 593.34 342.73 600.38 315.72 605.67 287.83 609.48 260.23 611.54 232.63 611.83 205.04 610.66 177.73"/><path class="cls-2" d="M134.13,352.75l-8.14-.12-2.91-5.25,3.07-5.14,8.14.12a1.11,1.11,0,0,0,.72-.21,1.29,1.29,0,0,0,.35-1.76c-.2-.27-.44-.61-.7-.94l0,0v0c-.26-.33-.56-.67-.85-1a13,13,0,0,0-18.24-.28,13,13,0,0,0-3.79,11.13L88.58,371.77a7.58,7.58,0,0,0-.16,10.68,7.68,7.68,0,0,0,10.71.16l23.15-22.48a12.86,12.86,0,0,0,11.23-3.45,14.69,14.69,0,0,0,1.61-1.91l0,0v0a1.17,1.17,0,0,0,.22-.68A1.24,1.24,0,0,0,134.13,352.75ZM97,379.81A4.09,4.09,0,1,1,97.1,374,4.13,4.13,0,0,1,97,379.81Z"/><path class="cls-3" d="M509,334.34c.41-3-1.27-8.05-5.53-7.95-2.8.07-4,1.08-5-.12-1.24-1.53-2.78-2.91-3.39-2.63s-.81,4.72-.81,4.72-6.75,2.15-7.42,5.78c-.35,1.91-7.93,4.48-7.93,4.48s.59,5.91,1.35,6.1a6.88,6.88,0,0,0,1.84.1l-.65,1.4,2.47.06s1.69-3.09,3-2.77a9.09,9.09,0,0,0,5.38-.66s-19.46,13.9-6.3,27.07c.38,2.68.57,4,.57,4s-4.2,1.79-4.58,3.81a6,6,0,0,0,1.14,4.06h-2.75v3.77h28.26v-3.77h-3.09s1.63-2.08,1-4.07c-.72-2.28-4.37-3.74-4.37-3.74l.15-4.56s3.12-.65,4.3-1.65c-2.29-.6-2.86-10.89-2.65-14.89C504.2,348.47,508.49,337.81,509,334.34Z"/><path class="cls-4" d="M119.95,120.59a24.75,24.75,0,0,1,1.25,7.8c0,6.47-1.82,12-8.82,15.9v28.3h12v-52Zm20.68,52h-12V137.08h12Zm-32.75.06h-12V152.09h12ZM79.72,146.18a1.63,1.63,0,0,0,0,2.34,1.66,1.66,0,0,0,2.34,0l7.15-7.14a18.76,18.76,0,0,0,4.6,2.79,18,18,0,0,0,19.62-3.92h0a18.16,18.16,0,0,0,3.9-5.84l0-.09a18.15,18.15,0,0,0,1.33-6.78,18.12,18.12,0,0,0-5.27-12.75,18,18,0,0,0-12.75-5.26,17.7,17.7,0,0,0-6.88,1.34h0A18.51,18.51,0,0,0,88,114.8l-.08.09a18,18,0,0,0-3.83,5.74l0,.11a18.1,18.1,0,0,0,0,13.69A18.41,18.41,0,0,0,86.87,139l-7.15,7.14Zm10.59-8.24a14.67,14.67,0,0,1-4.3-10.4A14.82,14.82,0,0,1,87.08,122l0-.07a14.48,14.48,0,0,1,3.11-4.71l.08-.08a14.91,14.91,0,0,1,4.77-3.19h0a15,15,0,0,1,5.63-1.1,14.62,14.62,0,0,1,13.59,9.09,14.68,14.68,0,0,1,0,11.16l0,.08a14.69,14.69,0,0,1-3.18,4.79h0a15.25,15.25,0,0,1-4.78,3.18,14.64,14.64,0,0,1-11.27,0A15.3,15.3,0,0,1,90.33,138l0,0Zm-.26-11.41a1,1,0,0,0-1,1,11.39,11.39,0,0,0,.89,4.44l0,.07a11.7,11.7,0,0,0,6.28,6.26,11.79,11.79,0,0,0,4.46.88,1,1,0,0,0,1-1,1,1,0,0,0-1-1,9.28,9.28,0,0,1-3.7-.74,9.45,9.45,0,0,1-3.13-2.09,9.27,9.27,0,0,1-2.09-3.1l0,0a9.43,9.43,0,0,1-.73-3.69,1,1,0,0,0-1-1Z"/><path class="cls-5" d="M535,122H523.59v-2a6.5,6.5,0,0,0-6.54-6.52h-8.4a6.49,6.49,0,0,0-6.55,6.52v2H490.73a7.84,7.84,0,0,0-7.79,7.82V161a7.81,7.81,0,0,0,7.79,7.78H535a7.82,7.82,0,0,0,7.81-7.78V129.8A7.83,7.83,0,0,0,535,122Zm-28.34-1.7a3,3,0,0,1,.87-2.1v0a2.93,2.93,0,0,1,2.09-.87h6.56a2.94,2.94,0,0,1,3,2.95v1.57H506.62Zm20.52,29.21a1.39,1.39,0,0,1-1.36,1.39h-7.41v7.4a1.39,1.39,0,0,1-1.41,1.37h-8.23a1.36,1.36,0,0,1-1.37-1.37v-7.4h-7.42a1.39,1.39,0,0,1-1.37-1.39v-8.27a1.39,1.39,0,0,1,1.37-1.35h7.42v-7.42a1.36,1.36,0,0,1,1.37-1.35H517a1.38,1.38,0,0,1,1.41,1.35v7.42h7.41a1.38,1.38,0,0,1,1.36,1.35Z"/><path class="cls-6" d="M265.08,532.57a31.86,31.86,0,0,1,4.08-.63s2.49-4.79,3.48-5c.72-.15,1.41.43,1.6.41s1-.66,1.58-.22,2.68,4.88,2.68,4.88,4.2.31,4.08.56-6.53,4.13-8.53,4.25S265.08,532.75,265.08,532.57Zm79.15,10.32a10,10,0,0,0-2.67-.92l3.33-2.71-3.33-3.3,0,.06c-.27,2.82-1.38,7.58-5.06,7.58s-4.69-4.81-5.09-7.64h0l-3.22,3.28,3.38,2.72a10,10,0,0,0-2.64.93,11.45,11.45,0,0,0-2.45,3.89c-1.51-3.21-3.52-6.47-4.88-7.39-1.71-1.16-5.69-2-5.69-2l7.1-5.79-7.1-7,0,.13c-.58,6-2.94,16.17-10.8,16.17-8.17,0-10-10.27-10.86-16.3h0l-6.88,7,7.21,5.81s-3.93.82-5.64,2c-1.32.9-3.26,4.06-4.74,7.22a11.13,11.13,0,0,0-2.39-3.7,10,10,0,0,0-2.67-.92l3.33-2.71-3.33-3.3,0,.06c-.27,2.82-1.38,7.58-5.06,7.58s-4.69-4.81-5.09-7.64h0l-3.22,3.28L269,542a10,10,0,0,0-2.64.93c-1.13.76-3.22,5.06-3.22,6.45a2.76,2.76,0,0,0,2.69,2.5h16.3a6.16,6.16,0,0,0-.18,1.31,5.89,5.89,0,0,0,5.75,5.33c.68,0,34.51,0,35.2,0a5.7,5.7,0,0,0,5.54-5.38,5.91,5.91,0,0,0-.17-1.22h.06l16.49,0a2.67,2.67,0,0,0,2.6-2.52C347.47,547.9,345.36,543.66,344.23,542.89Zm-7.68-6.07c2-.13,8.41-4,8.53-4.25S341,532,341,532s-2-4.44-2.68-4.88-1.28.19-1.58.22-.88-.56-1.6-.41c-1,.21-3.48,5-3.48,5a31.86,31.86,0,0,0-4.08.63C327.58,532.75,334.55,537,336.55,536.83Zm-31.36-10.38c4.28-.27,17.94-8.54,18.21-9.08s-8.7-1.2-8.7-1.2-4.37-9.47-5.71-10.41-2.74.4-3.38.47c-.42,0-1.88-1.2-3.42-.87-2.11.45-7.43,10.68-7.43,10.68s-8.7,1-8.7,1.34S300.91,526.71,305.19,526.45Z"/><rect class="cls-7" x="304.33" y="453.73" width="2" height="43.63"/><path class="cls-7" d="M305.33,447.69a30.22,30.22,0,0,0,4.76,8.55l-4.76-1.72-4.75,1.72A30.2,30.2,0,0,0,305.33,447.69Z"/><rect class="cls-7" x="447.8" y="323.53" width="2" height="43.87" transform="translate(-69.1 574.7) rotate(-61.46)"/><path class="cls-7" d="M424.23,332.1A30.22,30.22,0,0,0,434,332l-3.78,3.36-.76,5A30.2,30.2,0,0,0,424.23,332.1Z"/><rect class="cls-7" x="137.47" y="344.18" width="49.44" height="2" transform="translate(-119.78 88.38) rotate(-22.51)"/><path class="cls-7" d="M190.61,333.4a30.22,30.22,0,0,0-6.07,7.67L184.3,336l-3.41-3.73A30.19,30.19,0,0,0,190.61,333.4Z"/><rect class="cls-7" x="426.87" y="171.58" width="43.87" height="2" transform="translate(-27.93 235.31) rotate(-28.53)"/><path class="cls-7" d="M424.23,185.94a30.22,30.22,0,0,0,5.24-8.26l.76,5L434,186A30.19,30.19,0,0,0,424.23,185.94Z"/><rect class="cls-7" x="166.3" y="152.46" width="2" height="40.36" transform="translate(-62.79 242.31) rotate(-62.75)"/><path class="cls-7" d="M190.61,184.65a30.22,30.22,0,0,0-9.78.31l3.71-3.44.65-5A30.2,30.2,0,0,0,190.61,184.65Z"/><polygon class="cls-8" points="433.44 233.5 432.34 222.32 430.49 211.02 428.64 202.15 426.47 200.4 416.87 193.54 406.76 186.9 396.1 181.07 385.03 175.84 373.9 171.34 362.85 167.58 351.37 164.53 339.98 162.1 328.52 160.41 317.02 159.46 306.24 159.14 306.24 159.12 305.92 159.13 305.6 159.12 305.6 159.14 294.81 159.46 283.31 160.41 271.85 162.1 260.46 164.53 248.98 167.58 237.93 171.34 226.8 175.84 215.73 181.07 205.07 186.9 194.96 193.54 185.36 200.4 183.19 202.15 181.34 211.02 179.49 222.32 178.39 233.5 177.9 244.93 178.02 256.47 178.88 268.02 180.48 279.57 182.69 291.24 185.63 302.55 189.32 313.97 193.74 325.4 198.78 336.46 204.67 347.02 210.81 357.1 217.45 366.68 224.82 375.89 232.68 384.5 240.66 392.6 249.26 400.22 258.35 407.35 267.69 413.86 277.39 419.88 287.34 425.16 297.66 429.95 305.52 433.1 306.31 433.1 314.17 429.95 324.49 425.16 334.44 419.88 344.14 413.86 353.48 407.35 362.57 400.22 371.17 392.6 379.15 384.5 387.01 375.89 394.38 366.68 401.01 357.1 407.16 347.02 413.05 336.46 418.09 325.4 422.51 313.97 426.19 302.55 429.14 291.24 431.35 279.57 432.95 268.02 433.81 256.47 433.93 244.93 433.44 233.5"/><path class="cls-9" d="M306.6,434.6h-1.37l-8.13-3.25-10.39-4.82-10.11-5.37-9.7-6-9.4-6.56-9.16-7.18-8.74-7.75-8-8.11-7.9-8.64-7.5-9.37L209.58,358l-6.19-10.15-6-10.73-5-11.06-4.46-11.51L184.21,303l-3-11.48L179,279.85l-1.61-11.62-.87-11.64-.13-11.64.49-11.51L178,222.17l1.85-11.4,2-9.46,2.59-2.09,9.67-6.91,10.26-6.74L215,179.76l11.15-5.28,11.2-4.54,11.23-3.82,11.48-3,11.47-2.44,11.54-1.71,11.6-1,9.41-.28v-.09l1.86,0,1.78-.05v.11l9.33.27,11.58,1,11.55,1.7,11.49,2.44,11.65,3.1,11.06,3.76,11.2,4.53,11.15,5.27,10.84,5.93,10.11,6.65,9.65,6.89,2.66,2.14,2,9.39,1.85,11.37,1.12,11.36.49,11.43-.12,11.63-.86,11.65-1.61,11.64-2.25,11.84-2.95,11.3-3.71,11.51-4.45,11.51-5.12,11.25-5.9,10.57-6.17,10.12-6.74,9.74-7.37,9.21-7.93,8.68-8.1,8.22-8.6,7.62-9.16,7.18-9.4,6.56-9.86,6.11-9.95,5.28-10.39,4.83Zm-.79-3H306l7.6-3,10.24-4.76,9.83-5.22,9.66-6,9.27-6.47,9-7.08,8.49-7.53,7.95-8.07,7.82-8.56,7.27-9.1,6.6-9.54,6.09-10,5.84-10.46,5-11,4.39-11.35,3.66-11.35,2.91-11.17,2.2-11.62,1.58-11.48.85-11.46.12-11.45-.49-11.3-1.1-11.14L429,211.26,427.29,203l-1.76-1.42-9.53-6.8-10-6.58-10.61-5.79-11-5.2-11-4.47L362.42,169,351,166l-11.33-2.41-11.36-1.67L316.9,161l-11-.32h-.23l-10.79.32-11.42,1-11.36,1.68L260.77,166l-11.35,3-11,3.74-11,4.47-11,5.2-10.53,5.75-10.06,6.61-9.55,6.82L184.55,203l-1.74,8.34L181,222.56l-1.09,11.09L179.39,245l.12,11.47.86,11.45L182,279.37l2.19,11.55,2.94,11.25,3.66,11.34,4.39,11.34,5,10.92L206,346.29l6.11,10,6.56,9.47L226,375l7.8,8.52,7.91,8,8.56,7.58,9,7.07,9.27,6.46,9.59,5.95,9.91,5.26,10.25,4.76Z"/><path class="cls-9" d="M229.21,292.25c0,3.72-2.15,5.72-5.59,5.72s-5.51-2-5.51-5.72V274.08h-5.59v18.17a9.22,9.22,0,0,0,3.07,7.34,11.85,11.85,0,0,0,8,2.65,12,12,0,0,0,8.07-2.65,9.12,9.12,0,0,0,3.11-7.34V274.08h-5.59Z"/><polygon class="cls-9" points="271.24 274.13 282.62 274.13 282.62 273.11 271.55 273.11 271.24 274.13"/><polygon class="cls-9" points="267.33 287.21 280.67 287.21 280.67 286.15 267.65 286.15 267.33 287.21"/><polygon class="cls-9" points="288.58 300.87 304.19 300.87 304.19 299.84 289.61 299.84 289.61 286.91 302.95 286.91 302.95 285.88 289.61 285.88 289.61 274.13 304.19 274.13 304.19 273.11 288.58 273.11 288.58 300.87"/><polygon class="cls-9" points="308.16 274.13 318.57 274.13 318.57 300.87 319.6 300.87 319.6 274.13 329.33 274.13 329.33 273.11 308.16 273.11 308.16 274.13"/><polygon class="cls-9" points="332.58 274.13 343 274.13 343 300.87 344.03 300.87 344.03 274.13 353.75 274.13 353.75 273.11 332.58 273.11 332.58 274.13"/><polygon class="cls-9" points="359.43 300.87 375.05 300.87 375.05 299.84 360.46 299.84 360.46 286.91 373.81 286.91 373.81 285.88 360.46 285.88 360.46 274.13 375.05 274.13 375.05 273.11 359.43 273.11 359.43 300.87"/><path class="cls-9" d="M399.31,281c0-5.15-3.72-7.91-9-7.91h-8.68v27.76h1v-12h7.57a18.25,18.25,0,0,0,2-.08l5.66,12H399v-.32l-5.66-11.94A7.39,7.39,0,0,0,399.31,281Zm-9,6.9H382.7V274.12h7.65c4.73,0,7.93,2.46,7.93,6.94S395.32,287.92,390.31,287.92Z"/><polygon class="cls-9" points="239.76 274.39 239.76 300.95 246.01 300.95 246.01 282.81 246.1 282.79 255.3 299.67 257.29 293.04 245.97 274.39 239.76 274.39"/><polygon class="cls-10" points="267.94 266.5 265.58 274.38 256.31 305.41 259.13 305.56 268.22 275.22 268.86 273.11 270.79 266.66 270.84 266.66 270.85 266.64 267.94 266.5"/><path class="cls-11" d="M85.94,188.78H84v-9.24h1.9Z"/><path class="cls-11" d="M89.27,181.91l.06.79a2.4,2.4,0,0,1,2-.92,2,2,0,0,1,1.63.64,3,3,0,0,1,.54,1.92v4.44H91.64v-4.4a1.19,1.19,0,0,0-.25-.85,1.14,1.14,0,0,0-.84-.26,1.26,1.26,0,0,0-1.16.66v4.85H87.55v-6.87Z"/><path class="cls-11" d="M94.58,185.3a4.14,4.14,0,0,1,.72-2.56,2.34,2.34,0,0,1,2-1,2.1,2.1,0,0,1,1.66.75V179h1.84v9.75H99.11l-.09-.73a2.16,2.16,0,0,1-1.77.86,2.33,2.33,0,0,1-1.95-1A4.28,4.28,0,0,1,94.58,185.3Zm1.83.13a2.73,2.73,0,0,0,.34,1.49,1.1,1.1,0,0,0,1,.52,1.23,1.23,0,0,0,1.2-.72V184a1.21,1.21,0,0,0-1.19-.72Q96.42,183.26,96.42,185.43Z"/><path class="cls-11" d="M102.18,180.13a.9.9,0,0,1,.28-.68,1.19,1.19,0,0,1,1.5,0,1,1,0,0,1,0,1.36,1.17,1.17,0,0,1-1.49,0A.9.9,0,0,1,102.18,180.13Zm1.95,8.65h-1.84v-6.87h1.84Z"/><path class="cls-11" d="M108.5,187.43a1.2,1.2,0,0,0,.82-.28,1,1,0,0,0,.33-.74h1.72a2.35,2.35,0,0,1-.38,1.28,2.52,2.52,0,0,1-1,.9,3.21,3.21,0,0,1-1.44.32,3,3,0,0,1-2.32-.94,3.7,3.7,0,0,1-.85-2.59v-.12a3.66,3.66,0,0,1,.84-2.53,3,3,0,0,1,2.32-.95,2.89,2.89,0,0,1,2.07.73,2.59,2.59,0,0,1,.79,2h-1.72a1.26,1.26,0,0,0-.33-.87,1.23,1.23,0,0,0-1.81.13,2.71,2.71,0,0,0-.33,1.52v.19a2.74,2.74,0,0,0,.32,1.53A1.12,1.12,0,0,0,108.5,187.43Z"/><path class="cls-11" d="M116.4,188.78a2,2,0,0,1-.18-.62,2.22,2.22,0,0,1-1.73.74,2.44,2.44,0,0,1-1.67-.58,1.88,1.88,0,0,1-.66-1.47,1.94,1.94,0,0,1,.81-1.68,4,4,0,0,1,2.34-.59h.84v-.39a1.13,1.13,0,0,0-.25-.76,1,1,0,0,0-.77-.29,1.1,1.1,0,0,0-.73.22.76.76,0,0,0-.26.61H112.3a1.84,1.84,0,0,1,.37-1.1,2.43,2.43,0,0,1,1-.8,3.79,3.79,0,0,1,1.51-.29,3,3,0,0,1,2,.64,2.23,2.23,0,0,1,.75,1.79v3a3.29,3.29,0,0,0,.27,1.48v.11Zm-1.52-1.28a1.58,1.58,0,0,0,.75-.18,1.19,1.19,0,0,0,.51-.49v-1.18h-.69q-1.38,0-1.47,1v.11a.74.74,0,0,0,.24.56A.94.94,0,0,0,114.88,187.5Z"/><path class="cls-11" d="M121.58,180.22v1.69h1.17v1.35h-1.17v3.43a.82.82,0,0,0,.15.55.73.73,0,0,0,.56.17,2.9,2.9,0,0,0,.54,0v1.39a3.78,3.78,0,0,1-1.11.17,1.75,1.75,0,0,1-2-1.95v-3.7h-1v-1.35h1v-1.69Z"/><path class="cls-11" d="M123.3,185.28a4.07,4.07,0,0,1,.39-1.82,2.88,2.88,0,0,1,1.13-1.24,3.31,3.31,0,0,1,1.72-.44,3.13,3.13,0,0,1,2.27.85,3.41,3.41,0,0,1,1,2.31v.47a3.59,3.59,0,0,1-.88,2.54,3.42,3.42,0,0,1-4.74,0,3.65,3.65,0,0,1-.89-2.59Zm1.83.13a2.56,2.56,0,0,0,.37,1.5,1.32,1.32,0,0,0,2.09,0,2.81,2.81,0,0,0,.38-1.64,2.54,2.54,0,0,0-.37-1.49,1.22,1.22,0,0,0-1.05-.53,1.2,1.2,0,0,0-1,.52A2.85,2.85,0,0,0,125.14,185.41Z"/><path class="cls-11" d="M134.8,183.63a5,5,0,0,0-.66-.05,1.34,1.34,0,0,0-1.37.7v4.49h-1.83v-6.87h1.73l.05.82a1.7,1.7,0,0,1,1.53-.95,1.92,1.92,0,0,1,.57.08Z"/><path class="cls-11" d="M139.4,186.88a.59.59,0,0,0-.33-.53A3.75,3.75,0,0,0,138,186q-2.45-.51-2.45-2.08a1.89,1.89,0,0,1,.76-1.53,3.06,3.06,0,0,1,2-.61,3.29,3.29,0,0,1,2.09.62,1.94,1.94,0,0,1,.78,1.6h-1.83a.89.89,0,0,0-.25-.65,1.08,1.08,0,0,0-.79-.26,1.1,1.1,0,0,0-.72.21.66.66,0,0,0-.25.53.56.56,0,0,0,.29.49,3,3,0,0,0,1,.32,7.92,7.92,0,0,1,1.16.31,1.9,1.9,0,0,1,1.45,1.85,1.79,1.79,0,0,1-.81,1.52,3.48,3.48,0,0,1-2.08.58,3.63,3.63,0,0,1-1.53-.31,2.57,2.57,0,0,1-1.05-.84,2,2,0,0,1-.38-1.16h1.74a1,1,0,0,0,.36.75,1.43,1.43,0,0,0,.9.26,1.33,1.33,0,0,0,.8-.2A.62.62,0,0,0,139.4,186.88Z"/><path class="cls-11" d="M472,185.7a3.27,3.27,0,0,1-1.1,2.35,3.87,3.87,0,0,1-2.62.86,3.48,3.48,0,0,1-2.8-1.2,4.91,4.91,0,0,1-1-3.29v-.56a5.55,5.55,0,0,1,.47-2.35,3.52,3.52,0,0,1,1.34-1.56,4.2,4.2,0,0,1,4.61.31,3.52,3.52,0,0,1,1.13,2.41h-1.9a1.93,1.93,0,0,0-.5-1.3,1.84,1.84,0,0,0-1.3-.4,1.62,1.62,0,0,0-1.43.68,3.83,3.83,0,0,0-.49,2.12v.7a4.09,4.09,0,0,0,.45,2.19,1.59,1.59,0,0,0,1.43.69,1.88,1.88,0,0,0,1.32-.4,1.82,1.82,0,0,0,.5-1.25Z"/><path class="cls-11" d="M472.8,185.28a4.08,4.08,0,0,1,.39-1.82,2.89,2.89,0,0,1,1.13-1.24,3.31,3.31,0,0,1,1.72-.44,3.13,3.13,0,0,1,2.27.85,3.41,3.41,0,0,1,1,2.31v.47a3.59,3.59,0,0,1-.88,2.54,3.42,3.42,0,0,1-4.74,0,3.65,3.65,0,0,1-.89-2.59Zm1.83.13a2.56,2.56,0,0,0,.37,1.5,1.32,1.32,0,0,0,2.09,0,2.81,2.81,0,0,0,.37-1.64,2.55,2.55,0,0,0-.37-1.49,1.22,1.22,0,0,0-1.05-.53,1.2,1.2,0,0,0-1,.52A2.85,2.85,0,0,0,474.64,185.41Z"/><path class="cls-11" d="M484.55,188.08a2.3,2.3,0,0,1-1.88.83,2.17,2.17,0,0,1-1.69-.63,2.71,2.71,0,0,1-.59-1.86v-4.5h1.83v4.44q0,1.07,1,1.07a1.32,1.32,0,0,0,1.28-.65v-4.87h1.84v6.87H484.6Z"/><path class="cls-11" d="M491.57,183.63a5,5,0,0,0-.66-.05,1.34,1.34,0,0,0-1.37.7v4.49h-1.83v-6.87h1.73l.05.82a1.7,1.7,0,0,1,1.53-.95,1.92,1.92,0,0,1,.57.08Z"/><path class="cls-11" d="M496.18,186.88a.59.59,0,0,0-.33-.53,3.77,3.77,0,0,0-1.07-.35q-2.45-.51-2.45-2.08a1.89,1.89,0,0,1,.76-1.53,3.06,3.06,0,0,1,2-.61,3.3,3.3,0,0,1,2.09.62,1.94,1.94,0,0,1,.78,1.6h-1.83a.89.89,0,0,0-.25-.65,1.08,1.08,0,0,0-.79-.26,1.1,1.1,0,0,0-.72.21.66.66,0,0,0-.25.53.56.56,0,0,0,.29.49,3,3,0,0,0,1,.32,7.92,7.92,0,0,1,1.16.31,1.9,1.9,0,0,1,1.45,1.85,1.79,1.79,0,0,1-.81,1.52,3.47,3.47,0,0,1-2.08.58,3.63,3.63,0,0,1-1.53-.31,2.57,2.57,0,0,1-1.05-.84,2,2,0,0,1-.38-1.16h1.74a1,1,0,0,0,.36.75,1.44,1.44,0,0,0,.9.26,1.33,1.33,0,0,0,.8-.2A.62.62,0,0,0,496.18,186.88Z"/><path class="cls-11" d="M502.3,188.91a3.37,3.37,0,0,1-2.46-.93,3.29,3.29,0,0,1-.95-2.47v-.18a4.15,4.15,0,0,1,.4-1.85,2.93,2.93,0,0,1,1.13-1.26,3.18,3.18,0,0,1,1.67-.44,2.85,2.85,0,0,1,2.22.89,3.61,3.61,0,0,1,.81,2.52v.75h-4.37a1.7,1.7,0,0,0,.54,1.08,1.62,1.62,0,0,0,1.13.41,2,2,0,0,0,1.66-.77l.9,1a2.76,2.76,0,0,1-1.12.91A3.66,3.66,0,0,1,502.3,188.91Zm-.21-5.64a1.15,1.15,0,0,0-.89.37,1.92,1.92,0,0,0-.43,1.06h2.55v-.15a1.36,1.36,0,0,0-.33-.95A1.18,1.18,0,0,0,502.09,183.26Z"/><path class="cls-11" d="M509.12,185.28a4.07,4.07,0,0,1,.39-1.82,2.88,2.88,0,0,1,1.13-1.24,3.31,3.31,0,0,1,1.72-.44,3.13,3.13,0,0,1,2.27.85,3.41,3.41,0,0,1,1,2.31v.47a3.59,3.59,0,0,1-.88,2.54,3.42,3.42,0,0,1-4.74,0,3.65,3.65,0,0,1-.89-2.59Zm1.83.13a2.57,2.57,0,0,0,.37,1.5,1.32,1.32,0,0,0,2.09,0,2.81,2.81,0,0,0,.38-1.64,2.54,2.54,0,0,0-.37-1.49,1.22,1.22,0,0,0-1.05-.53,1.2,1.2,0,0,0-1,.52A2.86,2.86,0,0,0,511,185.41Z"/><path class="cls-11" d="M517.26,188.78v-5.52h-1v-1.35h1v-.58a2.37,2.37,0,0,1,.66-1.79,2.57,2.57,0,0,1,1.86-.64,4.32,4.32,0,0,1,.93.13l0,1.41a2.33,2.33,0,0,0-.56-.06q-1,0-1,1v.56h1.36v1.35H519.1v5.52Z"/><path class="cls-11" d="M530,186.88h-3.34l-.63,1.9h-2l3.44-9.24h1.76l3.46,9.24h-2Zm-2.83-1.54h2.31l-1.16-3.46Z"/><path class="cls-11" d="M536.25,187.43a1.2,1.2,0,0,0,.83-.28,1,1,0,0,0,.33-.74h1.72a2.37,2.37,0,0,1-.38,1.28,2.52,2.52,0,0,1-1,.9,3.21,3.21,0,0,1-1.44.32A3,3,0,0,1,534,188a3.7,3.7,0,0,1-.85-2.59v-.12a3.66,3.66,0,0,1,.84-2.53,3,3,0,0,1,2.32-.95,2.89,2.89,0,0,1,2.07.73,2.6,2.6,0,0,1,.79,2h-1.72a1.26,1.26,0,0,0-.33-.87,1.23,1.23,0,0,0-1.81.13,2.71,2.71,0,0,0-.33,1.52v.19a2.74,2.74,0,0,0,.32,1.53A1.12,1.12,0,0,0,536.25,187.43Z"/><path class="cls-11" d="M542.37,180.22v1.69h1.17v1.35h-1.17v3.43a.82.82,0,0,0,.15.55.73.73,0,0,0,.56.17,2.9,2.9,0,0,0,.54,0v1.39a3.78,3.78,0,0,1-1.11.17,1.75,1.75,0,0,1-2-1.95v-3.7h-1v-1.35h1v-1.69Z"/><path class="cls-11" d="M544.56,180.13a.91.91,0,0,1,.28-.68,1.19,1.19,0,0,1,1.5,0,1,1,0,0,1,0,1.36,1.18,1.18,0,0,1-1.49,0A.9.9,0,0,1,544.56,180.13Zm1.95,8.65h-1.84v-6.87h1.84Z"/><path class="cls-11" d="M547.73,185.28a4.08,4.08,0,0,1,.39-1.82,2.89,2.89,0,0,1,1.13-1.24,3.31,3.31,0,0,1,1.72-.44,3.13,3.13,0,0,1,2.27.85,3.41,3.41,0,0,1,1,2.31v.47a3.59,3.59,0,0,1-.88,2.54,3.42,3.42,0,0,1-4.74,0,3.65,3.65,0,0,1-.89-2.59Zm1.83.13a2.56,2.56,0,0,0,.37,1.5,1.32,1.32,0,0,0,2.09,0,2.81,2.81,0,0,0,.37-1.64,2.55,2.55,0,0,0-.37-1.49,1.22,1.22,0,0,0-1.05-.53,1.2,1.2,0,0,0-1,.52A2.85,2.85,0,0,0,549.57,185.41Z"/><path class="cls-11" d="M557.06,181.91l.06.79a2.4,2.4,0,0,1,2-.92,2,2,0,0,1,1.63.64,3,3,0,0,1,.55,1.92v4.44h-1.83v-4.4a1.19,1.19,0,0,0-.25-.85,1.13,1.13,0,0,0-.84-.26,1.26,1.26,0,0,0-1.16.66v4.85h-1.83v-6.87Z"/><path class="cls-11" d="M454.41,408h-3.34l-.63,1.9h-2l3.44-9.24h1.76l3.46,9.24h-2Zm-2.82-1.54h2.31L452.74,403Z"/><path class="cls-11" d="M459.91,401.34V403h1.17v1.35h-1.17v3.43a.82.82,0,0,0,.15.55.73.73,0,0,0,.56.17,2.9,2.9,0,0,0,.54,0v1.39A3.78,3.78,0,0,1,460,410a1.75,1.75,0,0,1-2-1.95v-3.7h-1V403h1v-1.69Z"/><path class="cls-11" d="M464.3,401.34V403h1.17v1.35H464.3v3.43a.82.82,0,0,0,.15.55.73.73,0,0,0,.56.17,2.9,2.9,0,0,0,.54,0v1.39a3.78,3.78,0,0,1-1.11.17,1.75,1.75,0,0,1-2-1.95v-3.7h-1V403h1v-1.69Z"/><path class="cls-11" d="M470.48,409.9a2,2,0,0,1-.18-.62,2.22,2.22,0,0,1-1.73.74,2.44,2.44,0,0,1-1.67-.58,1.88,1.88,0,0,1-.66-1.47,1.94,1.94,0,0,1,.81-1.68,4,4,0,0,1,2.34-.59h.84v-.39a1.13,1.13,0,0,0-.24-.76,1,1,0,0,0-.77-.29,1.09,1.09,0,0,0-.73.22.75.75,0,0,0-.26.61h-1.83a1.84,1.84,0,0,1,.37-1.1,2.43,2.43,0,0,1,1-.8,3.79,3.79,0,0,1,1.51-.29,3,3,0,0,1,2,.64,2.23,2.23,0,0,1,.75,1.79v3a3.29,3.29,0,0,0,.27,1.48v.11ZM469,408.62a1.57,1.57,0,0,0,.75-.18,1.18,1.18,0,0,0,.51-.49v-1.18h-.69q-1.38,0-1.47,1v.11a.74.74,0,0,0,.24.56A.94.94,0,0,0,469,408.62Z"/><path class="cls-11" d="M476.32,408.54a1.2,1.2,0,0,0,.83-.28,1,1,0,0,0,.33-.74h1.72a2.37,2.37,0,0,1-.38,1.28,2.52,2.52,0,0,1-1,.9,3.21,3.21,0,0,1-1.44.32,3,3,0,0,1-2.32-.94,3.7,3.7,0,0,1-.85-2.59v-.12a3.66,3.66,0,0,1,.84-2.53,3,3,0,0,1,2.32-.95,2.89,2.89,0,0,1,2.07.73,2.6,2.6,0,0,1,.79,2h-1.72a1.26,1.26,0,0,0-.33-.87,1.23,1.23,0,0,0-1.81.13,2.71,2.71,0,0,0-.33,1.52v.19a2.74,2.74,0,0,0,.32,1.53A1.12,1.12,0,0,0,476.32,408.54Z"/><path class="cls-11" d="M482.74,407.14l-.66.66v2.09h-1.83v-9.75h1.83v5.4l.36-.46,1.76-2.06h2.2l-2.48,2.86,2.7,4h-2.11Z"/><path class="cls-11" d="M492.45,406.64v3.26h-1.9v-9.24h3.61A4.17,4.17,0,0,1,496,401a2.81,2.81,0,0,1,1.22,1.08,3,3,0,0,1,.42,1.6,2.65,2.65,0,0,1-.93,2.14,3.87,3.87,0,0,1-2.57.78Zm0-1.54h1.7a1.68,1.68,0,0,0,1.15-.36,1.3,1.3,0,0,0,.4-1,1.53,1.53,0,0,0-.4-1.1,1.49,1.49,0,0,0-1.1-.43h-1.75Z"/><path class="cls-11" d="M502.72,409.9a2,2,0,0,1-.18-.62,2.22,2.22,0,0,1-1.73.74,2.44,2.44,0,0,1-1.67-.58,1.88,1.88,0,0,1-.66-1.47,1.94,1.94,0,0,1,.81-1.68,4,4,0,0,1,2.34-.59h.84v-.39a1.13,1.13,0,0,0-.24-.76,1,1,0,0,0-.77-.29,1.09,1.09,0,0,0-.73.22.75.75,0,0,0-.26.61h-1.83A1.84,1.84,0,0,1,499,404a2.43,2.43,0,0,1,1-.8,3.79,3.79,0,0,1,1.51-.29,3,3,0,0,1,2,.64,2.23,2.23,0,0,1,.75,1.79v3a3.29,3.29,0,0,0,.27,1.48v.11Zm-1.52-1.28a1.57,1.57,0,0,0,.75-.18,1.18,1.18,0,0,0,.51-.49v-1.18h-.69q-1.38,0-1.47,1v.11a.74.74,0,0,0,.24.56A.94.94,0,0,0,501.21,408.62Z"/><path class="cls-11" d="M507.91,401.34V403h1.17v1.35h-1.17v3.43a.82.82,0,0,0,.15.55.73.73,0,0,0,.56.17,2.9,2.9,0,0,0,.54,0v1.39A3.78,3.78,0,0,1,508,410a1.75,1.75,0,0,1-2-1.95v-3.7h-1V403h1v-1.69Z"/><path class="cls-11" d="M512.3,401.34V403h1.17v1.35H512.3v3.43a.82.82,0,0,0,.15.55.73.73,0,0,0,.56.17,2.9,2.9,0,0,0,.54,0v1.39a3.78,3.78,0,0,1-1.11.17,1.75,1.75,0,0,1-2-1.95v-3.7h-1V403h1v-1.69Z"/><path class="cls-11" d="M517.66,410a3.37,3.37,0,0,1-2.46-.93,3.29,3.29,0,0,1-.95-2.47v-.18a4.15,4.15,0,0,1,.4-1.85,2.93,2.93,0,0,1,1.13-1.26,3.17,3.17,0,0,1,1.67-.44,2.85,2.85,0,0,1,2.22.89,3.61,3.61,0,0,1,.81,2.52v.75h-4.37a1.7,1.7,0,0,0,.54,1.08,1.62,1.62,0,0,0,1.13.41,2,2,0,0,0,1.66-.77l.9,1a2.75,2.75,0,0,1-1.12.91A3.66,3.66,0,0,1,517.66,410Zm-.21-5.64a1.15,1.15,0,0,0-.89.37,1.91,1.91,0,0,0-.43,1.06h2.55v-.15a1.37,1.37,0,0,0-.33-.95A1.18,1.18,0,0,0,517.45,404.38Z"/><path class="cls-11" d="M525.39,404.75a5,5,0,0,0-.66-.05,1.34,1.34,0,0,0-1.37.7v4.49h-1.83V403h1.73l.05.82a1.7,1.7,0,0,1,1.53-.95,1.92,1.92,0,0,1,.57.08Z"/><path class="cls-11" d="M528,403l.06.79a2.4,2.4,0,0,1,2-.92,2,2,0,0,1,1.63.64,3,3,0,0,1,.55,1.92v4.44h-1.83v-4.4a1.2,1.2,0,0,0-.25-.85,1.14,1.14,0,0,0-.84-.26,1.26,1.26,0,0,0-1.16.66v4.85h-1.83V403Z"/><path class="cls-11" d="M537.27,408a.59.59,0,0,0-.33-.53,3.76,3.76,0,0,0-1.07-.35q-2.45-.51-2.45-2.08a1.89,1.89,0,0,1,.76-1.53,3.06,3.06,0,0,1,2-.61,3.29,3.29,0,0,1,2.09.62,1.94,1.94,0,0,1,.78,1.6H537.2a.89.89,0,0,0-.25-.65,1.08,1.08,0,0,0-.79-.26,1.1,1.1,0,0,0-.72.21.66.66,0,0,0-.25.53.57.57,0,0,0,.29.49,3,3,0,0,0,1,.32,8,8,0,0,1,1.16.31,1.9,1.9,0,0,1,1.45,1.85,1.79,1.79,0,0,1-.81,1.52,3.48,3.48,0,0,1-2.08.58,3.63,3.63,0,0,1-1.53-.31,2.57,2.57,0,0,1-1.05-.84,2,2,0,0,1-.38-1.16h1.74a1,1,0,0,0,.36.75,1.43,1.43,0,0,0,.9.26,1.33,1.33,0,0,0,.8-.2A.62.62,0,0,0,537.27,408Z"/><path class="cls-11" d="M268.39,580.11h-1.9v-9.24h1.9Z"/><path class="cls-11" d="M271.73,573.24l.06.79a2.4,2.4,0,0,1,2-.92,2,2,0,0,1,1.63.64,3,3,0,0,1,.55,1.92v4.44h-1.83v-4.4a1.2,1.2,0,0,0-.25-.85,1.14,1.14,0,0,0-.84-.26,1.26,1.26,0,0,0-1.16.66v4.85H270v-6.87Z"/><path class="cls-11" d="M279.51,571.55v1.69h1.17v1.35h-1.17V578a.82.82,0,0,0,.15.55.74.74,0,0,0,.56.17,2.92,2.92,0,0,0,.54,0v1.39a3.79,3.79,0,0,1-1.11.17,1.75,1.75,0,0,1-2-1.95v-3.7h-1v-1.35h1v-1.69Z"/><path class="cls-11" d="M285.57,575a5,5,0,0,0-.66-.05,1.34,1.34,0,0,0-1.37.7v4.49h-1.83v-6.87h1.73l.05.82a1.7,1.7,0,0,1,1.53-.95,1.92,1.92,0,0,1,.57.08Z"/><path class="cls-11" d="M290.56,579.41a2.3,2.3,0,0,1-1.88.83,2.17,2.17,0,0,1-1.68-.63,2.7,2.7,0,0,1-.59-1.86v-4.5h1.83v4.44q0,1.07,1,1.07a1.32,1.32,0,0,0,1.28-.65v-4.87h1.84v6.87h-1.73Z"/><path class="cls-11" d="M297.45,578.21a.59.59,0,0,0-.33-.53,3.77,3.77,0,0,0-1.07-.35q-2.45-.51-2.45-2.08a1.89,1.89,0,0,1,.76-1.53,3.06,3.06,0,0,1,2-.61,3.3,3.3,0,0,1,2.09.62,1.94,1.94,0,0,1,.78,1.6h-1.83a.89.89,0,0,0-.25-.65,1.08,1.08,0,0,0-.79-.26,1.1,1.1,0,0,0-.72.21.66.66,0,0,0-.25.53.56.56,0,0,0,.29.49,3,3,0,0,0,1,.32,7.92,7.92,0,0,1,1.16.31,1.9,1.9,0,0,1,1.45,1.85,1.79,1.79,0,0,1-.81,1.52,3.47,3.47,0,0,1-2.08.58,3.63,3.63,0,0,1-1.53-.31,2.57,2.57,0,0,1-1.05-.84,2,2,0,0,1-.38-1.16h1.74a1,1,0,0,0,.36.75,1.44,1.44,0,0,0,.9.26,1.33,1.33,0,0,0,.8-.2A.62.62,0,0,0,297.45,578.21Z"/><path class="cls-11" d="M300.4,571.46a.9.9,0,0,1,.28-.68,1.19,1.19,0,0,1,1.5,0,1,1,0,0,1,0,1.36,1.18,1.18,0,0,1-1.49,0A.9.9,0,0,1,300.4,571.46Zm1.95,8.65h-1.84v-6.87h1.84Z"/><path class="cls-11" d="M303.57,576.61a4.07,4.07,0,0,1,.39-1.82,2.88,2.88,0,0,1,1.13-1.24,3.31,3.31,0,0,1,1.72-.44,3.13,3.13,0,0,1,2.27.85,3.41,3.41,0,0,1,1,2.31v.47a3.59,3.59,0,0,1-.88,2.54,3.42,3.42,0,0,1-4.74,0,3.65,3.65,0,0,1-.89-2.59Zm1.83.13a2.57,2.57,0,0,0,.37,1.5,1.32,1.32,0,0,0,2.09,0,2.81,2.81,0,0,0,.38-1.64,2.54,2.54,0,0,0-.37-1.49,1.22,1.22,0,0,0-1.05-.53,1.2,1.2,0,0,0-1,.52A2.86,2.86,0,0,0,305.41,576.74Z"/><path class="cls-11" d="M312.9,573.24l.06.79a2.4,2.4,0,0,1,2-.92,2,2,0,0,1,1.63.64,3,3,0,0,1,.55,1.92v4.44h-1.83v-4.4a1.2,1.2,0,0,0-.25-.85,1.14,1.14,0,0,0-.84-.26,1.26,1.26,0,0,0-1.16.66v4.85h-1.83v-6.87Z"/><path class="cls-11" d="M326.64,577.68a1,1,0,0,0-.38-.83,5,5,0,0,0-1.37-.61,9.75,9.75,0,0,1-1.57-.63,2.56,2.56,0,0,1-1.57-2.29,2.23,2.23,0,0,1,.42-1.34,2.76,2.76,0,0,1,1.21-.92,4.56,4.56,0,0,1,1.77-.33,4.16,4.16,0,0,1,1.76.36,2.81,2.81,0,0,1,1.2,1,2.65,2.65,0,0,1,.43,1.49h-1.9a1.25,1.25,0,0,0-.4-1,1.65,1.65,0,0,0-1.12-.35,1.75,1.75,0,0,0-1.08.3.93.93,0,0,0-.39.78.89.89,0,0,0,.45.76,5.13,5.13,0,0,0,1.34.57,5.77,5.77,0,0,1,2.37,1.21,2.41,2.41,0,0,1,.74,1.8,2.22,2.22,0,0,1-.91,1.88,4,4,0,0,1-2.44.68,4.71,4.71,0,0,1-1.94-.39,3.07,3.07,0,0,1-1.34-1.07,2.74,2.74,0,0,1-.46-1.57h1.91q0,1.53,1.83,1.53a1.78,1.78,0,0,0,1.06-.28A.9.9,0,0,0,326.64,577.68Z"/><path class="cls-11" d="M332.88,580.23a3.37,3.37,0,0,1-2.46-.93,3.29,3.29,0,0,1-.95-2.47v-.18a4.15,4.15,0,0,1,.4-1.85,2.93,2.93,0,0,1,1.13-1.26,3.17,3.17,0,0,1,1.67-.44,2.85,2.85,0,0,1,2.22.89,3.61,3.61,0,0,1,.81,2.52v.75h-4.37a1.7,1.7,0,0,0,.54,1.08,1.62,1.62,0,0,0,1.13.41,2,2,0,0,0,1.66-.77l.9,1a2.75,2.75,0,0,1-1.12.91A3.66,3.66,0,0,1,332.88,580.23Zm-.21-5.64a1.15,1.15,0,0,0-.89.37,1.91,1.91,0,0,0-.43,1.06h2.55v-.15a1.37,1.37,0,0,0-.33-.95A1.18,1.18,0,0,0,332.67,574.59Z"/><path class="cls-11" d="M338.94,571.55v1.69h1.17v1.35h-1.17V578a.82.82,0,0,0,.15.55.74.74,0,0,0,.56.17,2.92,2.92,0,0,0,.54,0v1.39a3.79,3.79,0,0,1-1.11.17,1.75,1.75,0,0,1-2-1.95v-3.7h-1v-1.35h1v-1.69Z"/><path class="cls-11" d="M344.86,578.21a.59.59,0,0,0-.33-.53,3.76,3.76,0,0,0-1.07-.35q-2.45-.51-2.45-2.08a1.89,1.89,0,0,1,.76-1.53,3.06,3.06,0,0,1,2-.61,3.29,3.29,0,0,1,2.09.62,1.94,1.94,0,0,1,.78,1.6h-1.83a.89.89,0,0,0-.25-.65,1.08,1.08,0,0,0-.79-.26,1.1,1.1,0,0,0-.72.21.66.66,0,0,0-.25.53.57.57,0,0,0,.29.49,3,3,0,0,0,1,.32,8,8,0,0,1,1.16.31,1.9,1.9,0,0,1,1.45,1.85,1.79,1.79,0,0,1-.81,1.52,3.48,3.48,0,0,1-2.08.58,3.63,3.63,0,0,1-1.53-.31,2.57,2.57,0,0,1-1.05-.84,2,2,0,0,1-.38-1.16h1.74a1,1,0,0,0,.36.75,1.43,1.43,0,0,0,.9.26,1.33,1.33,0,0,0,.8-.2A.62.62,0,0,0,344.86,578.21Z"/><path class="cls-11" d="M106.93,402.2H104.1v7.7h-1.9v-7.7H99.41v-1.54h7.53Z"/><path class="cls-11" d="M106.29,406.4a4.07,4.07,0,0,1,.39-1.82,2.88,2.88,0,0,1,1.13-1.24,3.31,3.31,0,0,1,1.72-.44,3.13,3.13,0,0,1,2.27.85,3.41,3.41,0,0,1,1,2.31v.47a3.59,3.59,0,0,1-.88,2.54,3.42,3.42,0,0,1-4.74,0,3.65,3.65,0,0,1-.89-2.59Zm1.83.13a2.57,2.57,0,0,0,.37,1.5,1.32,1.32,0,0,0,2.09,0,2.81,2.81,0,0,0,.38-1.64,2.54,2.54,0,0,0-.37-1.49,1.22,1.22,0,0,0-1.05-.53,1.2,1.2,0,0,0-1,.52A2.86,2.86,0,0,0,108.13,406.53Z"/><path class="cls-11" d="M113.64,406.4a4.07,4.07,0,0,1,.39-1.82,2.88,2.88,0,0,1,1.13-1.24,3.31,3.31,0,0,1,1.72-.44,3.13,3.13,0,0,1,2.27.85,3.41,3.41,0,0,1,1,2.31v.47a3.59,3.59,0,0,1-.88,2.54,3.42,3.42,0,0,1-4.74,0,3.65,3.65,0,0,1-.89-2.59Zm1.83.13a2.57,2.57,0,0,0,.37,1.5,1.32,1.32,0,0,0,2.09,0,2.81,2.81,0,0,0,.38-1.64,2.54,2.54,0,0,0-.37-1.49,1.22,1.22,0,0,0-1.05-.53,1.2,1.2,0,0,0-1,.52A2.86,2.86,0,0,0,115.48,406.53Z"/><path class="cls-11" d="M123.22,409.9h-1.84v-9.75h1.84Z"/><path class="cls-11" d="M128.45,408a.59.59,0,0,0-.33-.53,3.76,3.76,0,0,0-1.07-.35q-2.45-.51-2.45-2.08a1.89,1.89,0,0,1,.76-1.53,3.06,3.06,0,0,1,2-.61,3.29,3.29,0,0,1,2.09.62,1.94,1.94,0,0,1,.78,1.6h-1.83a.89.89,0,0,0-.25-.65,1.08,1.08,0,0,0-.79-.26,1.1,1.1,0,0,0-.72.21.66.66,0,0,0-.25.53.57.57,0,0,0,.29.49,3,3,0,0,0,1,.32,8,8,0,0,1,1.16.31,1.9,1.9,0,0,1,1.45,1.85,1.79,1.79,0,0,1-.81,1.52,3.48,3.48,0,0,1-2.08.58,3.63,3.63,0,0,1-1.53-.31,2.57,2.57,0,0,1-1.05-.84,2,2,0,0,1-.38-1.16h1.74a1,1,0,0,0,.36.75,1.43,1.43,0,0,0,.9.26,1.33,1.33,0,0,0,.8-.2A.62.62,0,0,0,128.45,408Z"/></g></g></svg>